<svg width="19" height="19" viewBox="0 0 19 19" fill="none" xmlns="http://www.w3.org/2000/svg">
<path d="M9.30957 9.56641C9.73145 9.56641 10.0215 9.25879 10.0215 8.81934V0.926758C10.0215 0.478516 9.73145 0.179688 9.30957 0.179688C8.8877 0.179688 8.60645 0.478516 8.60645 0.926758V8.81934C8.60645 9.25879 8.8877 9.56641 9.30957 9.56641ZM9.30957 18.3818C14.082 18.3818 18.0459 14.4268 18.0459 9.6543C18.0459 7.06152 16.877 4.70605 15.04 3.10645C14.3193 2.45605 13.2734 3.48438 14.0996 4.21387C15.6025 5.52344 16.5518 7.4834 16.5518 9.6543C16.5518 13.6709 13.3262 16.8965 9.30957 16.8965C5.29297 16.8965 2.07617 13.6709 2.07617 9.6543C2.07617 7.4834 3.0166 5.53223 4.51953 4.21387C5.35449 3.48438 4.2998 2.45605 3.5791 3.10645C1.74219 4.70605 0.573242 7.06152 0.573242 9.6543C0.573242 14.4268 4.53711 18.3818 9.30957 18.3818Z" fill="#44464D"/>
</svg>
