<svg width="24" height="24" viewBox="0 0 24 24" fill="none" xmlns="http://www.w3.org/2000/svg">
<path d="M8.71427 3.75C8.44652 3.75024 8.19924 3.89315 8.06537 4.125L4.81787 9.75H2.26029C1.83752 9.744 1.49357 10.0891 1.50009 10.5073C1.50759 10.9256 1.84667 11.2557 2.26029 11.25C8.75334 11.25 15.2463 11.25 21.7394 11.25C22.7535 11.2643 22.7535 9.73565 21.7394 9.75H19.1833L15.9358 4.125C15.8016 3.89269 15.5537 3.7497 15.2854 3.75H8.71427Z" fill="#44464D"/>
<path d="M6.75 12.75C4.6878 12.75 3 14.4378 3 16.5C3 18.5622 4.6878 20.25 6.75 20.25C8.34277 20.25 9.70275 19.2387 10.2437 17.8301C10.7546 17.4594 11.3656 17.25 12 17.25C12.6343 17.25 13.2452 17.4607 13.7563 17.8315C14.2976 19.2395 15.6576 20.25 17.25 20.25C19.3121 20.25 21 18.5622 21 16.5C21 14.4378 19.3121 12.75 17.25 12.75C15.3498 12.75 13.7705 14.1839 13.5337 16.0225C13.0451 15.8451 12.5272 15.75 12 15.75C11.4728 15.75 10.9547 15.845 10.4662 16.0225C10.2294 14.1839 8.65013 12.75 6.75 12.75ZM6.75 14.25C8.00152 14.25 9 15.2485 9 16.5C9 17.7515 8.00152 18.75 6.75 18.75C5.49848 18.75 4.5 17.7515 4.5 16.5C4.5 15.2485 5.49848 14.25 6.75 14.25ZM17.25 14.25C18.5015 14.25 19.5 15.2485 19.5 16.5C19.5 17.7515 18.5015 18.75 17.25 18.75C15.9985 18.75 15 17.7515 15 16.5C15 15.2485 15.9985 14.25 17.25 14.25Z" fill="#44464D"/>
</svg>
