<svg width="301" height="206" viewBox="0 0 301 206" fill="none" xmlns="http://www.w3.org/2000/svg">
<path d="M113.979 172.757H125.908V202.657H113.979V172.757Z" fill="#FFC682"/>
<path d="M258.322 172.757H270.251V202.657H258.322V172.757Z" fill="#FFC682"/>
<path d="M113.979 172.757H125.908V184.696H113.979V172.757Z" fill="black"/>
<path d="M258.322 172.757H270.251V184.696H258.322V172.757Z" fill="#84805E"/>
<path d="M88.8527 169.332H295.377V179.171H88.8527V169.332Z" fill="#FFC682"/>
<path d="M244.725 127.521C243.409 125.802 241.849 124.287 240.093 123.023C239.013 122.245 237.784 121.453 237.424 120.172C237.289 119.5 237.289 118.808 237.424 118.137L238.01 113.188C239.068 114.622 240.538 115.701 242.224 116.279C240.438 114.729 238.509 112.919 238.283 110.572C238.24 109.577 238.366 108.582 238.658 107.629C240.098 101.908 242.498 96.0565 247.298 92.6293C248.853 91.592 250.498 90.6956 252.213 89.9509L259.014 86.7637C259.936 86.3317 260.934 85.8901 261.933 86.0245C262.931 86.1589 263.901 87.1429 263.618 88.1221C264.957 90.7429 266.109 93.8389 266.147 96.7621C266.171 98.4613 265.739 100.165 265.936 101.855C266.085 103.17 266.603 104.409 266.867 105.695C267.547 109.266 266.266 112.928 263.507 115.295C261.77 116.735 259.6 117.561 257.747 118.833C253.331 121.861 249.986 126.753 244.725 127.521Z" fill="#00A773"/>
<path d="M247.293 111.824C243.27 128.456 241.662 145.564 240.064 162.599C242.987 148.084 243.587 133.256 248.402 119.25C248.882 117.81 249.419 116.432 249.813 114.983C250.106 114.185 250.126 113.312 249.87 112.501C249.558 111.724 248.003 111.335 247.293 111.824Z" fill="#00A773"/>
<path d="M235.446 149.294C234.544 146.673 233.56 144.047 232.029 141.738C230.837 140.049 229.506 138.463 228.049 136.996C223.729 132.398 218.997 127.559 212.814 126.316C210.702 125.894 208.494 125.918 206.411 125.476C204.328 125.034 202.369 124.161 200.253 123.921C198.333 123.676 196.35 123.959 194.397 124.026C191.623 124.116 188.853 123.756 186.193 122.961C185.541 122.001 185.915 120.671 186.582 119.721C187.249 118.77 188.171 117.993 188.733 116.98C189.213 116.169 189.385 115.223 189.899 114.45C190.323 113.875 190.831 113.367 191.406 112.943C193.537 111.239 195.837 109.641 198.472 108.926C201.107 108.21 204.145 108.518 206.214 110.294C207.453 111.354 208.307 112.886 209.766 113.615C211.12 114.292 212.718 114.138 214.216 113.97L224.733 112.799C226.6 112.593 228.741 112.473 230.09 113.783C231.438 115.094 231.376 117.201 231.453 119.121C231.529 121.041 232.221 123.234 234.049 123.676C235.61 124.055 237.573 122.956 238.71 124.094C239.265 124.755 239.374 125.683 238.989 126.455C238.598 127.202 238.073 127.869 237.438 128.423C235.629 130.233 233.882 132.177 232.849 134.514C232.443 135.335 232.248 136.244 232.283 137.159C232.379 138.254 232.97 139.233 233.526 140.183C236.886 145.943 239.613 159.791 240.995 166.314C241.259 167.582 242.915 167.754 241.849 168.518C240.28 169.665 239.195 162.124 238.969 161.188C237.965 157.166 236.79 153.201 235.446 149.294Z" fill="#028961"/>
<path d="M242.205 167.376C241.797 162.393 242.901 157.416 244.125 152.572C244.384 151.467 244.705 150.378 245.085 149.308C246.045 146.716 247.667 144.412 249.333 142.2C251.592 139.195 253.992 136.3 256.533 133.516C254.217 131.952 253.414 128.918 254.651 126.412C257.399 125.355 260.011 123.974 262.432 122.299C262.633 124.24 262.972 126.165 263.445 128.059C263.472 125.949 263.667 123.845 264.026 121.766C269.421 118.286 276.15 117.201 281.752 114.129C281.108 115.357 280.635 116.666 280.346 118.022C281.458 116.75 282.353 115.304 282.995 113.74C285.155 112.512 287.214 111.422 289.37 110.193C289.106 111.042 288.97 111.925 288.966 112.814L291.693 109.348C291.107 113.188 288.28 116.26 285.453 118.948C280.653 123.484 275.373 127.699 269.234 130.07C265.605 131.467 261.683 132.23 258.395 134.304C255.688 136.017 253.595 138.523 251.675 141.091C246.107 148.569 243.453 154.238 242.205 167.376Z" fill="#028961"/>
<path opacity="0.2" d="M208.806 123.512C208.7 123.514 208.603 123.454 208.557 123.359C207.479 121.083 206.229 118.893 204.818 116.807C203.416 114.738 201.552 113.022 199.374 111.796C199.238 111.725 199.184 111.558 199.254 111.421C199.288 111.356 199.347 111.306 199.417 111.285C199.488 111.263 199.564 111.271 199.629 111.306C201.886 112.571 203.817 114.344 205.269 116.485C206.696 118.594 207.961 120.808 209.051 123.109C209.121 123.246 209.067 123.413 208.931 123.484C208.892 123.502 208.849 123.512 208.806 123.512Z" fill="#191919"/>
<path opacity="0.2" d="M215.766 125.029C215.614 125.017 215.501 124.884 215.512 124.732C215.758 121.561 216.825 118.509 218.608 115.876C218.693 115.749 218.864 115.715 218.992 115.799C219.117 115.888 219.149 116.06 219.064 116.188C217.338 118.743 216.305 121.701 216.064 124.775C216.051 124.927 215.918 125.04 215.766 125.029Z" fill="#191919"/>
<path opacity="0.2" d="M221.79 127.472C221.728 127.473 221.667 127.453 221.617 127.415C221.499 127.317 221.479 127.142 221.574 127.021C223.713 124.345 226.435 122.193 229.533 120.728C229.599 120.696 229.675 120.691 229.745 120.715C229.814 120.74 229.871 120.791 229.902 120.858C229.967 120.997 229.907 121.163 229.768 121.228C226.75 122.66 224.096 124.76 222.006 127.367C221.955 127.434 221.875 127.473 221.79 127.472Z" fill="#191919"/>
<path opacity="0.2" d="M226.173 129.157C226.033 129.157 225.915 129.053 225.897 128.915C225.879 128.777 225.966 128.646 226.101 128.61C228.743 127.888 231.457 127.46 234.194 127.333C234.267 127.329 234.339 127.355 234.393 127.405C234.447 127.454 234.479 127.524 234.482 127.597C234.485 127.67 234.46 127.742 234.41 127.796C234.36 127.851 234.291 127.883 234.218 127.885C231.522 128.012 228.848 128.436 226.245 129.147L226.173 129.157Z" fill="#191919"/>
<path opacity="0.2" d="M197.853 121.731C197.785 121.732 197.72 121.706 197.67 121.659C195.573 119.837 192.975 118.69 190.216 118.367C190.118 118.356 190.034 118.293 189.995 118.203C189.955 118.113 189.967 118.008 190.026 117.929C190.084 117.85 190.181 117.808 190.278 117.819C193.156 118.149 195.867 119.342 198.054 121.242C198.163 121.351 198.163 121.527 198.054 121.635C198.004 121.695 197.931 121.73 197.853 121.731Z" fill="#191919"/>
<path opacity="0.2" d="M213.093 123.752C212.943 123.752 212.819 123.633 212.814 123.483C212.737 121.041 212.963 118.598 213.486 116.211C213.501 116.139 213.545 116.076 213.607 116.036C213.67 115.996 213.745 115.983 213.818 116C213.889 116.015 213.952 116.058 213.991 116.119C214.031 116.181 214.044 116.255 214.029 116.327C213.51 118.669 213.29 121.067 213.371 123.464C213.374 123.538 213.347 123.609 213.296 123.662C213.246 123.716 213.176 123.746 213.102 123.747L213.093 123.752Z" fill="#191919"/>
<path opacity="0.2" d="M245.195 125.054C245.173 125.059 245.15 125.059 245.128 125.054C244.98 125.016 244.89 124.866 244.926 124.718C246.102 120.167 247.614 115.794 249.323 110.966C251.665 104.337 254.325 96.8248 259.206 90.7288C259.263 90.6382 259.367 90.5883 259.473 90.6004C259.58 90.6125 259.67 90.6845 259.705 90.7856C259.74 90.8866 259.714 90.9989 259.638 91.0744C254.814 97.0984 252.174 104.562 249.846 111.148C248.142 115.948 246.635 120.326 245.464 124.857C245.428 124.975 245.318 125.055 245.195 125.054Z" fill="#191919"/>
<path opacity="0.2" d="M252.683 103.031C252.593 103.031 252.508 102.986 252.457 102.911C252.415 102.852 252.398 102.777 252.411 102.705C252.423 102.633 252.464 102.569 252.525 102.527C255.448 100.478 258.472 98.4953 261.515 96.6281C261.648 96.5472 261.821 96.5891 261.901 96.7217C261.982 96.8542 261.94 97.0272 261.808 97.1081C258.774 98.9705 255.755 100.948 252.841 102.988C252.794 103.018 252.739 103.033 252.683 103.031Z" fill="#191919"/>
<path opacity="0.2" d="M250.384 109.079C250.319 109.078 250.256 109.054 250.206 109.012C250.091 108.913 250.076 108.74 250.173 108.623C250.304 108.461 250.448 108.31 250.605 108.172C252.57 106.704 254.754 105.552 257.075 104.759C257.172 104.712 257.287 104.725 257.371 104.793C257.455 104.86 257.492 104.97 257.467 105.075C257.442 105.18 257.358 105.26 257.253 105.282C254.986 106.056 252.855 107.18 250.936 108.613C250.888 108.652 250.72 108.834 250.595 108.978C250.544 109.043 250.466 109.08 250.384 109.079Z" fill="#191919"/>
<path opacity="0.2" d="M248.392 114.56C248.27 114.559 248.163 114.479 248.128 114.362C248.093 114.246 248.138 114.12 248.238 114.052C253.148 110.855 259.014 109.462 264.837 110.111C264.983 110.136 265.083 110.272 265.065 110.419C265.047 110.566 264.917 110.673 264.77 110.663C259.078 110.023 253.342 111.38 248.541 114.503C248.497 114.535 248.446 114.555 248.392 114.56Z" fill="#191919"/>
<path opacity="0.2" d="M247.36 117.939C247.252 117.939 247.154 117.875 247.11 117.776C247.08 117.709 247.077 117.632 247.103 117.562C247.129 117.493 247.182 117.437 247.249 117.407C248.544 116.823 249.961 116.564 251.377 116.653C251.485 116.647 251.586 116.703 251.637 116.797C251.689 116.891 251.682 117.006 251.619 117.093C251.556 117.18 251.449 117.224 251.344 117.205C250.016 117.124 248.688 117.368 247.475 117.915C247.439 117.931 247.399 117.939 247.36 117.939Z" fill="#191919"/>
<path opacity="0.2" d="M254.013 99.8865C253.91 99.8866 253.813 99.8365 253.754 99.7521C253.703 99.6576 253.703 99.5442 253.754 99.4497C253.359 97.4944 253.125 95.5103 253.053 93.5169C253.039 93.4096 253.088 93.3038 253.179 93.2457C253.27 93.1875 253.387 93.1875 253.478 93.2457C253.57 93.3038 253.619 93.4096 253.605 93.5169C253.677 95.5222 253.916 97.5179 254.32 99.4833C254.37 99.6459 254.289 99.8202 254.133 99.8865C254.093 99.8963 254.052 99.8963 254.013 99.8865Z" fill="#191919"/>
<path opacity="0.2" d="M251.07 107.37C250.953 107.37 250.848 107.297 250.806 107.188C249.683 104.15 249.016 100.961 248.829 97.7271C248.837 97.5861 248.949 97.4733 249.09 97.4647C249.231 97.4561 249.356 97.5545 249.381 97.6935C249.568 100.873 250.225 104.008 251.329 106.996C251.356 107.065 251.353 107.141 251.323 107.208C251.292 107.275 251.235 107.326 251.166 107.351C251.136 107.364 251.103 107.37 251.07 107.37Z" fill="#191919"/>
<path opacity="0.2" d="M248.315 114.728C248.225 114.728 248.14 114.683 248.089 114.608C245.487 110.872 243.33 106.845 241.662 102.608C241.607 102.467 241.676 102.307 241.818 102.251C241.96 102.195 242.12 102.265 242.176 102.407C243.83 106.604 245.968 110.594 248.545 114.297C248.63 114.423 248.598 114.594 248.473 114.68C248.427 114.712 248.372 114.729 248.315 114.728Z" fill="#191919"/>
<path opacity="0.2" d="M245.709 122.802C245.646 122.802 245.585 122.78 245.536 122.74C243.529 121.102 241.43 119.581 239.248 118.184C239.115 118.102 239.075 117.928 239.157 117.796C239.239 117.663 239.413 117.622 239.545 117.704C241.745 119.112 243.862 120.644 245.886 122.293C246.004 122.392 246.021 122.567 245.925 122.687C245.875 122.757 245.795 122.8 245.709 122.802Z" fill="#191919"/>
<path opacity="0.2" d="M259.245 132.369C259.161 132.37 259.082 132.333 259.029 132.268C257.785 130.734 257.004 128.878 256.778 126.916C256.763 126.764 256.871 126.629 257.022 126.609C257.175 126.592 257.312 126.701 257.33 126.853C257.544 128.709 258.282 130.465 259.456 131.917C259.526 131.999 259.541 132.114 259.496 132.211C259.45 132.308 259.352 132.37 259.245 132.369Z" fill="#191919"/>
<path opacity="0.2" d="M266.329 129.891H266.281C266.132 129.862 266.032 129.72 266.056 129.57L267.496 120.93C267.507 120.827 267.575 120.738 267.671 120.7C267.768 120.662 267.878 120.682 267.956 120.75C268.034 120.819 268.068 120.925 268.043 121.026L266.603 129.666C266.578 129.797 266.463 129.892 266.329 129.891Z" fill="#191919"/>
<path opacity="0.2" d="M271.499 126.906H271.422C271.276 126.864 271.19 126.712 271.23 126.565C271.979 123.917 272.942 121.334 274.11 118.842C274.175 118.703 274.341 118.643 274.48 118.708C274.546 118.738 274.598 118.794 274.623 118.862C274.648 118.931 274.645 119.006 274.614 119.073C273.461 121.533 272.51 124.084 271.773 126.7C271.738 126.822 271.626 126.907 271.499 126.906Z" fill="#191919"/>
<path opacity="0.2" d="M283.97 117.897C283.944 117.901 283.918 117.901 283.893 117.897C283.746 117.853 283.662 117.698 283.706 117.551L284.666 114.46C284.709 114.313 284.864 114.229 285.011 114.273C285.156 114.319 285.237 114.473 285.194 114.618L284.253 117.681C284.221 117.81 284.103 117.9 283.97 117.897Z" fill="#191919"/>
<path d="M256.173 157.842L255.793 159.762L255.553 160.948L254.113 168.297C253.867 169.111 253.106 169.659 252.256 169.636H230.113C229.263 169.659 228.502 169.111 228.256 168.297L226.816 160.948L226.576 159.762L226.197 157.842C226.081 157.375 226.193 156.879 226.499 156.508C226.806 156.136 227.271 155.931 227.752 155.956H254.632C255.11 155.938 255.569 156.145 255.872 156.516C256.175 156.886 256.286 157.377 256.173 157.842Z" fill="#84805E"/>
<path d="M143.547 134.354C143.096 134.887 142.552 135.335 141.942 135.676C141.298 136.038 140.583 136.259 139.846 136.322L137.289 136.541L137.002 136.567L135.25 136.718L134.627 136.767C131.821 136.998 128.996 137.19 126.163 137.33H126.073H125.94C125.249 137.364 124.554 137.394 123.863 137.421C120.736 137.538 117.605 137.583 114.478 137.53H113.832C113.775 137.534 113.717 137.534 113.659 137.53C113.605 137.536 113.55 137.536 113.496 137.53H113.44C113.017 137.491 112.598 137.412 112.19 137.296C110.68 136.86 109.339 135.974 108.345 134.758C106.295 132.235 105.542 128.899 106.309 125.739C106.426 125.23 106.551 124.72 106.687 124.229C106.823 123.738 106.929 123.232 107.065 122.718C107.201 122.205 107.333 121.646 107.476 121.109C107.503 120.996 107.533 120.883 107.563 120.769C107.941 119.259 108.364 117.748 108.817 116.264C109.316 114.606 109.863 112.967 110.494 111.381C110.566 111.199 110.637 111.003 110.713 110.841C110.894 110.397 111.083 109.959 111.279 109.526C111.925 108.085 112.683 106.696 113.545 105.372C113.545 105.359 113.545 105.347 113.545 105.334C116.506 100.802 121.065 97.3088 125.948 97.4032C128.459 97.4447 130.858 98.4304 132.95 100.002C133.328 100.273 133.667 100.564 134.015 100.87L134.124 100.965L134.291 101.116C135.7 102.429 136.923 103.928 137.928 105.572C138.165 105.95 138.396 106.358 138.615 106.762C138.743 106.996 138.868 107.23 138.993 107.468L139.083 107.638C139.083 107.672 139.113 107.698 139.132 107.732C139.598 108.669 140.025 109.629 140.413 110.614C140.575 111.026 140.73 111.437 140.881 111.856C141.515 113.601 142.052 115.407 142.531 117.227C142.641 117.605 142.743 118.016 142.841 118.409C142.843 118.424 142.843 118.439 142.841 118.454C142.841 118.492 142.86 118.534 142.871 118.571C143.068 119.349 143.249 120.131 143.445 120.913C143.555 121.374 143.66 121.834 143.77 122.291C143.79 122.363 143.807 122.437 143.819 122.51C143.819 122.552 143.842 122.594 143.849 122.631C143.895 122.809 143.936 122.986 143.974 123.16C143.997 123.247 144.019 123.341 144.038 123.428C144.167 123.964 144.291 124.501 144.416 125.037C144.642 126.004 144.865 126.968 145.084 127.93C145.604 130.194 145.035 132.57 143.547 134.354Z" fill="#D6EEE6"/>
<path d="M139.045 204.184H84.635L93.2911 166.316C93.7821 166.474 137.897 187.556 137.897 187.556L139.045 204.184Z" fill="#1C3BC7"/>
<path d="M80.0803 188.432C79.7404 192.688 78.7283 197.182 75.673 200.162C72.8782 202.893 68.9883 203.829 65.0077 204.184C63.497 204.324 61.9864 204.377 60.5399 204.419L52.4805 204.63C45.6296 204.811 38.7825 204.985 31.9317 205.008C29.1105 205.008 26.0665 204.91 23.8194 203.206C22.4069 202.126 21.4816 200.536 20.7981 198.908C18.1544 192.786 18.2639 185.732 20.0427 179.304C21.2248 174.847 23.268 170.531 26.5348 167.271C28.8008 165.005 31.5502 163.344 34.3261 161.769C41.4197 157.751 48.7961 154.255 56.3969 151.307C59.3276 150.172 62.2885 149.116 65.2796 148.139C66.1671 147.855 67.0509 147.58 67.9233 147.304C71.0315 146.356 74.691 144.143 75.4766 148.709C76.2772 153.407 77.0779 158.109 77.8785 162.815C79.325 171.293 80.7715 179.866 80.0803 188.432Z" fill="#170C2C"/>
<path d="M106.883 107.804C106.166 108.34 68.3878 127.858 68.3878 127.858L53.3491 68.9419C53.2434 66.7552 51.1587 65.0255 48.9493 64.999C46.6784 65.0545 44.7783 66.7392 44.4513 68.9872C44.1341 71.6535 46.1546 74.1234 46.0866 76.8049" stroke="#010149" stroke-linecap="round" stroke-linejoin="round"/>
<path d="M44.5608 67.8994C43.5553 67.1336 42.2605 66.8566 41.0296 67.1441C39.8134 67.4389 38.6944 68.044 37.7817 68.9002C37.0114 69.5179 36.4346 70.3437 36.12 71.2795C35.799 72.439 36.12 73.6702 36.4599 74.8296L38.3973 81.6465" stroke="#010149" stroke-linecap="round" stroke-linejoin="round"/>
<path d="M35.9349 71.7443C33.6085 70.6906 30.4739 71.1816 29.0803 73.3078C27.732 75.3774 28.3438 78.1042 29.0048 80.4835L29.8923 83.6899C30.3644 85.3856 30.8591 87.1304 31.9241 88.5315C32.9891 89.9327 34.7793 90.9486 36.4863 90.5709" stroke="#010149" stroke-linecap="round" stroke-linejoin="round"/>
<path d="M28.3325 76.1969C26.503 75.1158 24.1541 75.5733 22.8639 77.2619C21.6743 78.9312 21.916 81.2047 22.3428 83.2064C23.1267 86.8607 24.3637 90.4029 26.025 93.7508C26.2668 94.3244 26.6287 94.8395 27.0862 95.2615C28.3325 96.2699 30.3191 95.6618 31.3237 94.4117C32.3283 93.1617 32.6039 91.4999 32.8343 89.9175" stroke="#010149" stroke-linecap="round" stroke-linejoin="round"/>
<rect opacity="0.9" x="18.2343" y="44.6261" width="25.142" height="48.1148" rx="5.01604" transform="rotate(-9.39033 18.2343 44.6261)" fill="#191919"/>
<rect x="20.113" y="46.5567" width="20.549" height="41.3044" rx="3.67947" transform="rotate(-9.39033 20.113 46.5567)" fill="white"/>
<path d="M37.7029 89.0645C38.2932 88.9669 38.6926 88.4092 38.595 87.8189C38.4974 87.2286 37.9397 86.8292 37.3494 86.9269C36.7591 87.0245 36.3597 87.5821 36.4574 88.1724C36.555 88.7627 37.1126 89.1621 37.7029 89.0645Z" fill="white"/>
<g clip-path="url(#clip0_2_2438)">
<path d="M34.1471 57.3318C34.1664 57.4484 34.1779 57.5663 34.1881 57.6764C34.3481 59.232 34.1076 60.803 33.4894 62.2395L33.4959 62.2783C34.971 62.0348 36.3855 63.0478 36.6298 64.5228L37.6992 70.9894L42.7714 70.1506L41.7393 63.9094C41.118 60.1922 37.9118 57.4159 34.144 57.3323" fill="#415AFF"/>
<path d="M25.6109 66.4089C25.625 66.5423 25.6391 66.6757 25.6609 66.8079C30.245 66.3293 33.5707 62.2979 33.105 57.7916C33.0909 57.6582 33.0768 57.5248 33.055 57.3926C28.4787 57.8699 25.1452 61.9026 25.6109 66.4089Z" fill="#73A8FF"/>
<path d="M30.8839 66.9104L25.8086 67.7497L26.6479 72.8251L31.7232 71.9857L30.8839 66.9104Z" fill="#415AFF"/>
</g>
<path fill-rule="evenodd" clip-rule="evenodd" d="M55.2866 76.7066C50.0823 76.1476 45.0896 78.644 40.4783 81.1139C39.6059 81.544 38.7817 82.0656 38.0197 82.6699C37.0694 83.4537 36.3989 84.5244 36.1087 85.7215C35.8317 86.9367 36.1084 88.2123 36.864 89.2036C37.7591 90.3366 39.2509 90.8275 40.6822 90.8389C42.1136 90.8502 43.5109 90.4196 44.8668 89.9664C41.7839 92.5903 40.6846 96.8696 42.1211 100.654C42.413 101.44 42.8499 102.164 43.409 102.788C44.449 103.822 45.792 104.497 47.2423 104.714C48.6833 104.928 50.1431 104.988 51.5968 104.892" fill="white"/>
<path d="M55.2866 76.7066C50.0823 76.1476 45.0896 78.644 40.4783 81.1139C39.6059 81.544 38.7817 82.0656 38.0197 82.6699C37.0694 83.4537 36.3989 84.5244 36.1087 85.7215C35.8317 86.9367 36.1084 88.2123 36.864 89.2036C37.7591 90.3366 39.2509 90.8275 40.6822 90.8389C42.1136 90.8502 43.5109 90.4196 44.8668 89.9664C41.7839 92.5903 40.6846 96.8696 42.1211 100.654C42.413 101.44 42.8499 102.164 43.409 102.788C44.449 103.822 45.792 104.497 47.2423 104.714C48.6833 104.928 50.1431 104.988 51.5968 104.892" stroke="#010149" stroke-linecap="round" stroke-linejoin="round"/>
<path d="M34.734 95.4766C34.6584 95.4992 34.734 95.3633 34.8171 95.3708C37.1372 95.5833 39.1189 97.1324 39.8853 99.3325" stroke="#010149" stroke-linecap="round" stroke-linejoin="round"/>
<path d="M24.8089 90.514C30.2473 108.215 35.1796 126.045 40.5614 143.765C42.0985 148.833 43.7715 155.14 47.8805 158.815C52.1519 162.641 58.6629 161.776 63.7161 160.36C76.0469 156.908 87.7281 150.57 99.4018 145.381" stroke="#010149" stroke-linecap="round" stroke-linejoin="round"/>
<path d="M70.5631 136.378L64.6791 113.325" stroke="#010149" stroke-linecap="round" stroke-linejoin="round"/>
<path fill-rule="evenodd" clip-rule="evenodd" d="M149.353 109.5L209.248 184.16C210.713 186.358 212.268 188.422 213.903 190.341C214.603 191.184 215.373 191.889 216.195 192.44C217.376 193.156 218.678 193.28 219.951 193.393L233.399 194.599C234.545 194.701 235.716 194.814 236.763 195.496C237.81 196.178 238.731 197.558 238.841 199.246C238.948 200.871 238.314 202.374 237.705 203.735C237.408 203.655 237.102 203.724 236.834 203.931H199.026C196.078 204.496 193.478 201.492 191.132 198.805C178 183.805 163.946 167.762 150.99 152.31" fill="white"/>
<path d="M149.353 109.5L209.248 184.16C210.713 186.358 212.268 188.422 213.903 190.341C214.603 191.184 215.373 191.889 216.195 192.44C217.376 193.156 218.678 193.28 219.951 193.393L233.399 194.599C234.545 194.701 235.716 194.814 236.763 195.496C237.81 196.178 238.731 197.558 238.841 199.246C238.948 200.871 238.314 202.374 237.705 203.735C237.408 203.655 237.102 203.724 236.834 203.931H199.026C196.078 204.496 193.478 201.492 191.132 198.805C178 183.805 163.946 167.762 150.99 152.31" stroke="#010149" stroke-linecap="round" stroke-linejoin="round"/>
<path d="M155.583 196.204C151.1 203.142 143.268 204.762 135.514 204.377C126.382 203.924 120.883 200.223 114.743 193.825C112.775 191.786 104.236 181.064 104.236 181.064L104.07 204.237H65.7215C63.7051 204.23 61.8953 202.999 61.1479 201.126C60.4005 199.254 60.8653 197.115 62.3225 195.721L66.1784 192.035C65.8952 188.636 65.6535 184.939 65.4722 181.083C64.8377 167.947 64.8188 152.947 65.6875 141.326C66.3597 132.337 67.6816 120.422 73.1313 112.948C78.2864 105.878 87.1049 103.37 95.3456 106.052C103.979 108.862 110.075 115.943 115.475 122.854L142.225 157.003C142.225 157.003 152.226 156.062 156.913 165.761C160.61 173.45 161.29 187.363 155.583 196.204Z" fill="#170C2C"/>
<path d="M104.221 181.064L104.055 204.238H65.7215C63.7051 204.23 61.8953 202.999 61.1479 201.126C60.4005 199.254 60.8653 197.115 62.3225 195.721L66.1784 192.035C65.8952 188.636 65.6535 184.939 65.4722 181.083L65.4949 181.064H104.221Z" fill="#415AFF"/>
<path d="M133.244 204.185C125.434 203.267 120.355 199.653 114.739 193.829C112.771 191.786 104.232 181.064 104.232 181.064L104.07 204.185" stroke="white"/>
<path d="M65.0077 204.185C63.1387 203.911 61.5893 202.596 61.0152 200.797C60.441 198.997 60.9425 197.028 62.3074 195.722L66.1671 192.039C65.0151 177.436 64.7187 162.778 65.2796 148.14" stroke="white"/>
<path d="M104.225 181.064L104.493 143.755" stroke="white"/>
<path d="M148.298 164.772L142.21 157.003" stroke="white"/>
<path d="M0 204.362H300.777H0Z" fill="white"/>
<path d="M0 204.362H300.777" stroke="#010149" stroke-width="0.377666"/>
<path fill-rule="evenodd" clip-rule="evenodd" d="M128.803 94.6424C133.369 94.6424 137.07 90.9411 137.07 86.3753C137.07 81.8095 133.369 78.1082 128.803 78.1082C124.237 78.1082 120.536 81.8095 120.536 86.3753C120.536 90.9411 124.237 94.6424 128.803 94.6424Z" stroke="#010149" stroke-width="0.7"/>
<path d="M120.491 86.353C122.808 86.353 124.687 84.4744 124.687 82.1571C124.687 79.8398 122.808 77.9612 120.491 77.9612C118.173 77.9612 116.295 79.8398 116.295 82.1571C116.295 84.4744 118.173 86.353 120.491 86.353Z" fill="#170C2C"/>
<path d="M138.109 89.9748C140.426 89.9748 142.305 88.0962 142.305 85.7789C142.305 83.4616 140.426 81.583 138.109 81.583C135.791 81.583 133.913 83.4616 133.913 85.7789C133.913 88.0962 135.791 89.9748 138.109 89.9748Z" fill="#170C2C"/>
<path d="M129.863 86.0206C133.735 86.0206 136.873 82.882 136.873 79.0104C136.873 75.1388 133.735 72.0002 129.863 72.0002C125.991 72.0002 122.853 75.1388 122.853 79.0104C122.853 82.882 125.991 86.0206 129.863 86.0206Z" fill="#170C2C"/>
<path d="M189.471 5.03152L189.888 4.84303L196.315 19.063L195.897 19.2515L189.471 5.03152Z" fill="#FFC682"/>
<path d="M182.774 19.062L189.201 4.84205L189.618 5.03054L183.191 19.2505L182.774 19.062Z" fill="#FFC682"/>
<path d="M189.471 61.9444C197.545 61.9444 204.089 51.7553 204.089 39.1863C204.089 26.6174 197.545 16.4283 189.471 16.4283C181.398 16.4283 174.853 26.6174 174.853 39.1863C174.853 51.7553 181.398 61.9444 189.471 61.9444Z" fill="#FFC682"/>
<path d="M202.622 39.1871C202.622 40.1025 202.584 41.0021 202.507 41.8859C201.659 51.9195 196.147 59.6647 189.487 59.6647C183.359 59.6647 178.21 53.1426 176.751 44.3203C176.471 42.6249 176.331 40.9094 176.332 39.1911C176.332 27.8791 182.219 18.7135 189.487 18.7135C189.826 18.7134 190.164 18.7332 190.501 18.7727C192.837 19.0489 194.999 20.276 196.838 22.2053C197.755 23.1862 198.558 24.2691 199.229 25.4328C200.619 27.8838 201.586 30.5515 202.089 33.324C202.452 35.2571 202.63 37.2203 202.622 39.1871Z" fill="white"/>
<g opacity="0.6">
<path d="M199.738 35.8718L197.737 35.1695L199.11 36.5622L195.09 40.9773C194.944 41.135 194.714 41.1808 194.52 41.0908C194.325 41.0007 194.211 40.7955 194.237 40.5828C194.916 33.8753 196.794 28.9749 199.213 25.416C200.603 27.867 201.57 30.5347 202.073 33.3071L199.738 35.8718Z" fill="#D6EEE6"/>
<path d="M192.213 23.5188L190.864 21.8696L191.302 23.7792L185.561 25.4087C185.358 25.4662 185.141 25.387 185.023 25.2123C184.904 25.0375 184.911 24.8065 185.04 24.6394C186.655 22.5061 188.479 20.5393 190.485 18.7683C192.821 19.0445 194.983 20.2716 196.822 22.201L192.213 23.5188Z" fill="#D6EEE6"/>
<path d="M202.507 41.8777C201.659 51.9113 196.147 59.6565 189.487 59.6565C183.359 59.6565 178.21 53.1345 176.751 44.3121C179.914 42.8783 183.568 43.0157 186.614 44.683C192.075 47.5988 196.593 43.7519 202.507 41.8777V41.8777Z" fill="#D6EEE6"/>
<path d="M181.359 29.3075C181.602 29.1725 181.871 29.0905 182.148 29.0668C182.229 29.05 182.301 29.0036 182.349 28.9366C182.598 28.608 182.987 28.4151 183.399 28.4158C183.701 28.4158 183.995 28.5188 184.231 28.7077L184.255 28.7275C184.366 28.6865 184.484 28.6651 184.602 28.6643C184.919 28.6619 185.218 28.8079 185.411 29.0589C185.452 29.115 185.515 29.1509 185.585 29.1575C185.791 29.1779 185.992 29.241 186.173 29.343C186.199 29.3624 186.21 29.3961 186.202 29.4276C186.193 29.4591 186.166 29.4819 186.133 29.485H181.398C181.362 29.4751 181.333 29.4455 181.325 29.4082C181.317 29.3709 181.33 29.3321 181.359 29.3075Z" fill="#D6EEE6"/>
</g>
<path d="M189.617 6.03592C190.179 6.03592 190.635 5.58016 190.635 5.01796C190.635 4.45576 190.179 4 189.617 4C189.055 4 188.599 4.45576 188.599 5.01796C188.599 5.58016 189.055 6.03592 189.617 6.03592Z" fill="#FFC682"/>
<defs>
<clipPath id="clip0_2_2438">
<rect width="16.4277" height="14.3216" fill="white" transform="translate(24.3216 58.7579) rotate(-9.39)"/>
</clipPath>
</defs>
</svg>
