<svg width="1200" height="1200" viewBox="0 0 1200 1200" fill="none" xmlns="http://www.w3.org/2000/svg">
<path d="M244.701 496.786L261.536 467.603L379.29 585.358H113.763C89.3461 585.674 69.3881 566.16 68.947 541.545L68.9468 541.534C68.5613 516.806 88.8495 496.453 113.762 496.786H244.701Z" fill="#1F2326"/>
<path fill-rule="evenodd" clip-rule="evenodd" d="M547.283 823.623C566.106 817.306 585.706 813.263 605.68 811.747L842.871 1048.94C782.651 1031.45 734.026 986.231 711.278 928.299C685.577 909.989 655.071 899.643 623.479 899.643C591.872 899.643 561.368 909.925 535.676 928.222C506.304 1003.11 433.714 1056.79 348.707 1056.79C238.018 1056.79 147.446 966.138 147.446 855.357C147.446 744.577 238.018 653.929 348.707 653.929C448.61 653.929 531.947 727.809 547.283 823.623ZM348.707 742.5C411.45 742.5 461.471 792.563 461.471 855.357C461.471 918.152 411.45 968.215 348.707 968.215C285.965 968.215 235.944 918.152 235.944 855.357C235.944 792.563 285.965 742.5 348.707 742.5Z" fill="#1F2326"/>
<path d="M229.549 223.483C214.904 208.839 191.16 208.839 176.516 223.483C161.871 238.128 161.871 261.872 176.516 276.517L972.011 1072.01C986.655 1086.66 1010.4 1086.66 1025.04 1072.01C1039.69 1057.37 1039.69 1033.62 1025.04 1018.98L229.549 223.483Z" fill="#1F2326"/>
<path d="M1099.51 855.357C1099.51 893.059 1089.02 928.428 1070.82 958.686L1004.81 892.682C1008.83 881.022 1011.01 868.467 1011.01 855.357C1011.01 792.563 960.992 742.5 898.25 742.5C885.118 742.5 872.543 744.693 860.868 748.737L794.89 682.759C825.13 664.473 860.508 653.929 898.25 653.929C1008.94 653.929 1099.51 744.577 1099.51 855.357Z" fill="#1F2326"/>
<path d="M1133.18 585.358H697.488L377.941 265.81L413.225 204.643C421.123 190.953 435.712 182.514 451.509 182.5L795.426 182.5C811.253 182.483 825.88 190.926 833.795 204.642L1002.32 496.786H1133.18C1147.8 496.589 1159.14 501.997 1166.79 510.509C1174.35 518.933 1178.02 530.088 1178.02 541.071C1178.02 552.055 1174.35 563.21 1166.79 571.633C1159.14 580.146 1147.79 585.555 1133.18 585.358Z" fill="#1F2326"/>
</svg>
