<svg width="42" height="55" viewBox="0 0 42 55" fill="none" xmlns="http://www.w3.org/2000/svg">
<path d="M1.06936 26.48C0.17436 27.9116 -0.203528 32.4196 0.107236 35.4117C0.216624 36.3992 0.395624 37.2229 0.656665 37.7141C1.01466 38.3939 1.6163 38.7983 2.30247 38.8231C2.74251 38.8455 3.01598 38.771 11.2897 36.1163C11.2897 36.1163 14.9667 34.9453 14.9816 34.9378C15.899 34.7046 16.5155 33.8636 16.5752 32.7893C16.6349 31.6877 16.0656 30.7151 15.1258 30.3628C15.1258 30.3628 12.5328 29.3084 12.5278 29.3084C3.63751 25.6489 3.23724 25.505 2.78974 25.5C2.10358 25.4727 1.49448 25.8176 1.06936 26.48Z" fill="#4078FB"/>
<path d="M20.9582 53.7462C21.1024 53.3294 21.1198 53.0441 21.1447 44.3704C21.1447 44.3704 21.1646 40.5372 21.1671 40.5C21.2267 39.5597 20.6176 38.7037 19.6207 38.3217C18.594 37.9272 17.4876 38.1703 16.8661 38.9419C16.8661 38.9419 15.0513 41.0905 15.0463 41.0905C8.81858 48.3922 8.55754 48.7296 8.40589 49.1613C8.3139 49.4143 8.27661 49.6873 8.30644 49.9577C8.34373 50.3447 8.52025 50.7268 8.81112 51.0841C10.2555 52.796 17.1818 55.339 19.3945 54.9619C20.1627 54.823 20.7221 54.3913 20.9582 53.7462Z" fill="#4078FB"/>
<path d="M35.0098 50.7268C37.0981 49.8956 41.6526 44.1123 41.9733 41.8869C42.0852 41.1128 41.8416 40.4454 41.3071 40.0186C40.9565 39.7557 40.6905 39.6539 32.4217 36.9446C32.4217 36.9446 28.7945 35.7488 28.7472 35.7265C27.8697 35.3866 26.8678 35.7016 26.194 36.5303C25.4929 37.3813 25.3885 38.5052 25.9479 39.3537L27.4072 41.7256C32.3148 49.6798 32.6902 50.243 33.0432 50.5184C33.5902 50.9476 34.2863 51.017 35.0098 50.7268Z" fill="#4078FB"/>
<path d="M30.7361 30.2482C40.1336 27.9756 40.4965 27.8565 40.867 27.6133C41.4363 27.2312 41.7222 26.5911 41.6725 25.8121C41.6725 25.7873 41.6774 25.76 41.6725 25.7327C41.4313 23.4303 37.3889 17.4411 35.3975 16.4685C34.6915 16.1311 33.9854 16.1535 33.3987 16.5455C33.0357 16.7812 32.7697 17.1384 27.7378 24.0059C27.7378 24.0059 25.4655 27.0948 25.4382 27.1246C24.839 27.8515 24.8291 28.8935 25.4158 29.7867C26.0224 30.7121 27.0467 31.1637 27.9865 30.9032C27.9865 30.9032 27.9492 30.9702 27.9392 30.9826C28.4016 30.8089 29.2295 30.6054 30.7361 30.2482Z" fill="#4078FB"/>
<path d="M21.3038 22.5053C21.1422 18.7887 20.021 2.24025 19.8892 1.47361C19.7003 0.778922 19.1558 0.282716 18.3752 0.0867152C15.9761 -0.506251 6.80731 2.05665 5.1093 3.80578C4.56235 4.37393 4.36098 5.07358 4.52506 5.69384C4.79356 6.24215 16.1526 24.0783 16.1526 24.0783C17.8307 26.795 19.2006 26.3732 19.6505 26.2318C20.0955 26.0953 21.4579 25.6736 21.3038 22.5053Z" fill="#4078FB"/>
</svg>
