<svg fill="none" height="17" viewBox="0 0 19 17" width="19" xmlns="http://www.w3.org/2000/svg" xmlns:xlink="http://www.w3.org/1999/xlink"><clipPath id="a"><path d="m0 0h18.7941v16.3846h-18.7941z"/></clipPath><g clip-path="url(#a)"><path d="m11.3563.224121c0 .13519-.009.270381-.018.396559-.1098 1.78577-.6745 3.51405-1.6403 5.02007v.04506c1.7105.00045 3.1179 1.40788 3.1184 3.11839v7.4986h5.8817v-7.23723c-.0075-4.31167-3.1081-8.04383-7.3454-8.841449" fill="#415aff"/><path d="m.0270586 8.8764c-.0090127.15322-.0180254.30643-.0180254.45965 5.2634168.31544 9.7697568-3.61409 10.0851668-8.787376.0091-.153216.0181-.306432.0181-.4596474-5.25444-.3154446-9.769797 3.6140934-10.0852414 8.7873734z" fill="#73a8ff"/><path d="m5.88529 10.4268h-5.88529v5.8852h5.88529z" fill="#415aff"/></g></svg>