<svg width="259" height="222" viewBox="0 0 259 222" fill="none" xmlns="http://www.w3.org/2000/svg">
<path d="M0.801791 90.1789H93.4857C93.8734 87.3602 93.8861 84.5026 93.5235 81.6805C93.1532 78.8866 91.9259 76.0892 89.6565 74.4231C86.6283 72.2797 82.7589 71.7103 79.2417 72.8907C77.5089 73.4598 75.9454 74.4518 74.6925 75.7772C73.3213 77.2582 72.1934 78.9928 70.0131 79.3391C67.0717 79.8019 63.9246 78.458 61.7032 76.5965C58.4636 73.8814 56.1838 70.107 52.7043 67.7039C48.3025 64.6665 42.3718 64.2757 37.3392 66.0926C32.3067 67.9096 28.1551 71.7285 25.2961 76.2537C23.9008 78.4615 22.7729 80.8578 21.0725 82.8427C19.3722 84.8276 16.9073 86.3908 14.3053 86.1817C11.8542 85.9863 9.50591 84.2688 7.13019 84.9133C5.60123 85.3281 4.50078 86.6274 3.14666 87.457C2.41588 87.9012 1.60735 88.2025 0.764082 88.3449C0.315304 88.4258 -0.0083579 88.8206 0.000164423 89.2765C0.00868674 89.7325 0.346873 90.1148 0.798363 90.1789H0.801791Z" fill="#E9F9FF"/>
<path d="M170.082 165.772H258.235C258.64 161.189 256.497 156.754 252.655 154.222C248.814 151.691 243.893 151.472 239.842 153.652C233.659 145.741 224.181 141.114 214.14 141.105C204.1 141.095 194.613 145.705 188.416 153.605C186.515 156.024 184.388 159.015 181.32 158.89C180.128 158.842 179.014 158.294 177.84 158.062C173.413 157.168 168.861 161.398 170.082 165.772Z" fill="#E9F9FF"/>
<path d="M225.019 27.1421C225.726 24.0771 225.016 20.8563 223.085 18.373C221.298 16.0445 218.489 14.7325 215.557 14.8569C212.598 15.0813 210.095 17.1326 209.294 19.99C208.003 14.2238 205.667 8.46613 201.312 4.47086C196.958 0.475585 190.276 -1.38089 184.946 1.16856C181.687 2.7256 179.283 5.71136 177.726 8.97089C176.292 12.2919 175.238 15.7646 174.586 19.3227C173.807 17.4833 172.345 15.2932 170.411 15.7979C169.188 16.1145 168.52 17.432 168.221 18.6639C167.921 19.8959 167.819 21.2305 167.092 22.2571C167.164 21.0728 166.761 19.9086 165.971 19.0232C165.138 18.1492 163.829 17.9265 162.754 18.4757C160.975 19.5537 161.437 22.4368 159.965 23.9083C159.383 22.3769 158.365 20.7257 156.74 20.4862C155.225 20.4257 153.836 21.3274 153.275 22.7362C152.756 24.1229 152.54 25.6049 152.642 27.0822L225.019 27.1421Z" fill="#E9F9FF"/>
<path d="M244.386 131.939L245.469 139.346L240.369 137.522L238.889 136.993L235.306 135.711L232.95 134.867L232.686 134.773L226.128 137.12L223.331 138.119L219.901 139.346L220.962 132.102L221.464 128.678L221.642 127.46L212 115.028L220.758 112.854L221.817 112.59L224.66 111.885L227.846 107.168L229.195 105.168L232.686 100L240.713 111.885L250.551 114.329L252.998 114.937L253.371 115.028L243.729 127.46L244.094 129.952L244.386 131.939Z" fill="#FFC682"/>
<path fill-rule="evenodd" clip-rule="evenodd" d="M34.9376 147.521L35.5782 151.893L32.5666 150.818L31.6938 150.504L29.5806 149.746L28.1896 149.251L28.0339 149.195L24.1622 150.578L22.5135 151.17L20.4871 151.893L21.1149 147.618L21.4084 145.596L21.5131 144.879L15.8242 137.542L20.995 136.258L21.6203 136.102L23.297 135.686L25.1755 132.902L25.9743 131.723L28.0339 128.673L32.7708 135.686L38.577 137.128L40.0216 137.486L40.2411 137.542L34.5522 144.879L34.7666 146.349L34.9376 147.521Z" stroke="#010149" stroke-width="1.06341" stroke-linecap="round" stroke-linejoin="round"/>
<path d="M78.0784 59.8428L78.6491 63.7485L75.958 62.7852L75.1779 62.5077L73.2879 61.8323L72.047 61.3873L71.9057 61.3401L68.4502 62.5757L66.9738 63.1045L65.1623 63.7485L65.7225 59.9265L65.9895 58.1255L66.0837 57.4815L61 50.9266L65.6178 49.78L66.178 49.6387L67.6753 49.267L69.356 46.7801L70.068 45.7277L71.9057 43L76.1413 49.267L81.3297 50.5549L82.6177 50.8795L82.8166 50.9266L77.7329 57.4815L77.9214 58.7957L78.0784 59.8428Z" fill="#FFC682"/>
<path d="M139.494 40.5238C138.359 41.6169 137.107 42.5807 135.76 43.3976C135.54 43.5303 135.318 43.6528 135.099 43.7778C132.159 45.3959 129.165 46.0238 126.768 45.5261C126.331 45.439 125.903 45.3073 125.492 45.1331C124.792 44.8394 124.16 44.4051 123.634 43.857C120.845 40.9474 121.738 35.4066 125.464 30.5855C125.673 30.315 125.893 30.0445 126.12 29.779C126.46 29.3894 126.811 29.0066 127.172 28.6305C127.325 28.4749 127.478 28.3217 127.639 28.1686L127.868 27.9542C131.903 24.1897 136.758 22.444 140.318 23.1561C140.665 23.2254 141.006 23.3201 141.339 23.4394C142.155 23.7316 142.893 24.2085 143.495 24.8329C144.153 25.5263 144.625 26.3742 144.869 27.2983C144.928 27.5093 144.977 27.7262 145.014 27.9491C145.128 28.6286 145.158 29.3193 145.106 30.0062C145.106 30.0572 145.106 30.1057 145.093 30.1542C145.078 30.3278 145.06 30.4988 145.034 30.6646L145.011 30.8305C144.532 33.9672 142.61 37.525 139.494 40.5238Z" fill="#9D63DB"/>
<path fill-rule="evenodd" clip-rule="evenodd" d="M200.529 188.554C199.845 189.211 199.091 189.791 198.28 190.284C198.148 190.364 198.015 190.441 197.882 190.514C196.114 191.486 194.309 191.864 192.867 191.565C192.605 191.513 192.348 191.433 192.102 191.328C191.681 191.152 191.3 190.891 190.984 190.562C189.304 188.809 189.843 185.473 192.084 182.566C192.211 182.403 192.339 182.24 192.479 182.081C192.678 181.847 192.89 181.614 193.112 181.39C193.204 181.295 193.299 181.203 193.393 181.111L193.533 180.981C195.96 178.718 198.893 177.663 201.027 178.095C201.234 178.135 201.438 178.192 201.637 178.266C202.128 178.441 202.573 178.727 202.936 179.103C203.332 179.52 203.616 180.031 203.762 180.588C203.798 180.717 203.827 180.847 203.849 180.979C203.919 181.388 203.937 181.805 203.905 182.219V182.308C203.905 182.411 203.885 182.515 203.87 182.617L203.854 182.719C203.566 184.613 202.402 186.754 200.529 188.554V188.554Z" stroke="#010149" stroke-linecap="round" stroke-linejoin="round"/>
<path d="M71.8726 208.564C72.6302 209.437 73.2892 210.39 73.8378 211.407C73.9246 211.573 74.0114 211.739 74.093 211.905C75.1675 214.118 75.5146 216.336 75.0603 218.071C74.9797 218.386 74.8677 218.692 74.726 218.985C74.4848 219.485 74.1445 219.932 73.7255 220.297C71.4898 222.231 67.465 221.369 64.068 218.459C63.8766 218.296 63.6877 218.125 63.5014 217.949C63.2292 217.692 62.9621 217.42 62.7 217.134C62.5929 217.017 62.4857 216.897 62.381 216.777L62.2304 216.598C59.6272 213.503 58.5298 209.881 59.1857 207.303C59.2511 207.053 59.3364 206.808 59.4409 206.571C59.9574 205.315 61.0672 204.399 62.3989 204.131C62.5582 204.095 62.7192 204.067 62.8813 204.047C63.383 203.984 63.8904 203.984 64.3922 204.047L64.4993 204.06C64.6244 204.077 64.7546 204.098 64.8745 204.123L64.997 204.146C67.2685 204.624 69.8002 206.17 71.8726 208.564Z" fill="#9D63DB"/>
<path d="M120.067 99.2262C120.256 98.8416 120.449 98.4569 120.643 98.0723C121.64 96.115 122.621 93.8515 124.963 93.2549C129.1 92.1873 134.072 93.6082 136.443 97.3945C137.751 99.467 138.261 102.105 138.735 104.46C139.095 106.241 139.348 108.043 139.494 109.855C139.617 111.425 139.915 113.466 139.321 114.992C139.145 115.501 138.755 115.906 138.253 116.101C137.917 116.185 137.568 116.202 137.225 116.151C132.088 115.732 126.947 115.335 121.849 114.547C120.24 114.285 118.385 114.482 116.925 113.626C114.279 112.08 116.307 108.338 117.066 106.252C117.941 103.859 118.943 101.513 120.067 99.2262Z" fill="#415AFF"/>
<path d="M125.494 92.7021C125.497 92.8011 125.505 92.8997 125.518 92.9978C125.636 94.3024 126.207 95.5243 127.132 96.4519C128.666 97.9068 131.17 98.1187 133.001 97.0747C133.904 96.546 134.641 95.7756 135.129 94.8505" stroke="#010149" stroke-width="0.914637" stroke-linecap="round" stroke-linejoin="round"/>
<path d="M40.7045 112.262C39.5741 112.165 38.6896 111.943 38.1427 110.823C37.8462 110.108 37.6693 109.35 37.6194 108.578C37.2975 106.33 36.8919 104.027 37.2059 101.754C37.5461 99.2834 38.687 97.9724 40.8484 96.8681C44.729 94.8821 49.1983 93.4298 53.4086 92.3281C62.363 89.9731 74.4835 88.5182 85.144 88.4711C96.0974 88.4467 107.027 89.4922 117.777 91.5929" stroke="#010149" stroke-width="0.914637" stroke-linecap="round" stroke-linejoin="round"/>
<path d="M45.0222 102.916C45.0222 102.916 43.7557 103.795 42.7274 104.619C42.1185 105.077 41.5836 105.625 41.1416 106.244C40.4822 107.231 40.5712 108.338 40.6183 109.458L40.7413 113.121C40.7701 113.974 40.6863 115.269 41.3614 115.897C41.6613 116.147 42.0482 116.268 42.4369 116.232C43.0563 116.163 43.6605 115.996 44.2267 115.735C44.9594 115.442 45.6529 114.95 45.9276 114.181C46.0631 113.703 46.1101 113.205 46.0663 112.71L45.9512 108.702" stroke="#010149" stroke-width="0.914637" stroke-linecap="round" stroke-linejoin="round"/>
<path d="M110.192 108.337C88.055 103.522 70.7873 105.665 59.3628 109.512C55.2389 110.899 50.1703 113.013 46.0176 110.687" stroke="#010149" stroke-width="0.914637" stroke-linecap="round" stroke-linejoin="round"/>
<path d="M45.9287 114.188C46.3219 114.365 46.7512 114.447 47.1821 114.428C48.1293 114.362 49.0033 113.895 49.5843 113.144C49.913 112.719 50.1548 112.233 50.296 111.715" stroke="#010149" stroke-width="0.914637" stroke-linecap="round" stroke-linejoin="round"/>
<path d="M190.785 80.1204L176.652 81.2063L174.467 54.2594L188.6 53.1709L190.785 80.1204Z" fill="#FF8952"/>
<path d="M190.784 80.1201L176.651 81.2061L175.288 83.3596L189.421 82.2711L190.784 80.1201Z" fill="#170C2C"/>
<path d="M175.287 83.3612L176.651 81.2076L174.466 54.2607L173.103 56.4117L175.287 83.3612Z" fill="#170C2C"/>
<path d="M185.278 57.1196C185.777 57.0641 186.134 56.5888 186.075 56.058C186.016 55.5272 185.564 55.1419 185.064 55.1974C184.565 55.2529 184.208 55.7281 184.267 56.2589C184.326 56.7897 184.779 57.1751 185.278 57.1196Z" fill="white"/>
<path d="M142.417 115.247C149.231 118.533 156.181 121.509 163.267 124.172C165.823 125.133 168.435 126.062 171.151 126.245C173.867 126.428 176.748 125.787 178.74 123.942C180.278 122.524 181.165 120.54 181.987 118.617C186.854 107.148 190.716 95.2761 194.573 83.4198C195.22 81.4363 195.882 79.4215 195.984 77.3333C196.088 75.431 195.74 73.5339 195.397 71.6577L194.147 64.8542C193.99 63.9041 193.702 62.9804 193.291 62.1093C192.883 61.2762 191.957 60.8315 191.051 61.0338C190.154 61.2641 189.646 62.5332 189.902 63.3889C189.902 63.3889 188.837 62.1957 187.744 62.651C186.65 63.1063 186.514 64.8856 186.514 64.8856C186.514 64.8856 183.986 62.6693 183.06 65.2886C182.573 66.665 182.777 68.167 183.023 69.5983C183.408 71.8566 183.465 74.1587 183.191 76.4332C180.749 77.1685 178.337 78.312 176.696 80.2719C175.055 82.2318 174.359 85.1416 175.521 87.4338C172.883 94.1614 170.256 100.635 167.621 107.36C159.418 103.697 151.065 99.7323 142.859 96.0585" fill="white"/>
<path d="M142.417 115.247C149.231 118.533 156.181 121.509 163.267 124.172C165.823 125.133 168.435 126.062 171.151 126.245C173.867 126.428 176.748 125.787 178.74 123.942C180.278 122.524 181.165 120.54 181.987 118.617C186.854 107.148 190.716 95.2761 194.573 83.4198C195.22 81.4363 195.882 79.4215 195.984 77.3333C196.088 75.431 195.74 73.5339 195.397 71.6577L194.147 64.8542C193.99 63.9041 193.702 62.9804 193.291 62.1093C192.883 61.2762 191.957 60.8315 191.051 61.0338C190.154 61.2641 189.646 62.5332 189.902 63.3889C189.902 63.3889 188.837 62.1957 187.744 62.651C186.65 63.1063 186.514 64.8856 186.514 64.8856C186.514 64.8856 183.986 62.6693 183.06 65.2886C182.573 66.665 182.777 68.167 183.023 69.5983C183.408 71.8566 183.465 74.1587 183.191 76.4332C180.749 77.1685 178.337 78.312 176.696 80.2719C175.055 82.2318 174.359 85.1416 175.521 87.4338C172.883 94.1614 170.256 100.635 167.621 107.36C159.418 103.697 151.065 99.7323 142.859 96.0585" stroke="#010149" stroke-width="0.914637" stroke-linecap="round" stroke-linejoin="round"/>
<path d="M186.485 64.5215C187.133 68.8845 187.465 73.2885 187.48 77.6992" stroke="#010149" stroke-width="0.914637" stroke-linecap="round" stroke-linejoin="round"/>
<path d="M189.81 62.9844C190.974 68.1674 191.706 73.4381 192 78.7422" stroke="#010149" stroke-width="0.914637" stroke-linecap="round" stroke-linejoin="round"/>
<path d="M160.501 104.121L171.659 109.187" stroke="#010149" stroke-width="0.914637" stroke-linecap="round" stroke-linejoin="round"/>
<path d="M149.331 213.51C149.702 216.888 145.654 218.869 143.247 216.485L126.262 199.683C126.262 199.683 135.368 189.132 138.615 185.129L162.247 190.519C159.962 193.338 148.781 208.483 148.781 208.483L149.331 213.51Z" fill="#415AFF"/>
<path d="M70.8402 158.624L77.1413 182.907C72.0963 182.533 57.6494 181.337 54.4989 181.044L51.7487 183.794C49.5795 185.966 45.9423 183.93 46.62 180.929L52.3009 155.851C58.4711 156.814 64.6509 157.738 70.8402 158.624Z" fill="#415AFF"/>
<path d="M177.492 168.906C174.514 183.918 160.221 204.493 160.221 204.493L155.169 199.969L138.615 185.137C141.679 181.356 144.961 177.601 147.614 173.506C149.863 170.04 152.11 166.571 154.355 163.1L129.444 149.289C126.801 153.758 122.902 161.639 119.021 168.898C117.496 172.229 116.143 174.883 114.9 177.01C110.303 184.86 107.196 185.47 102.455 186.168C102.154 186.21 101.79 186.263 101.372 186.315C93.4457 187.362 65.8604 190.29 65.8604 190.29L67.1504 182.084L70.8399 158.625C80.199 159.942 89.5625 161.154 98.9303 162.262C100.852 158.546 102.509 154.698 103.889 150.749C100.749 145.492 100.775 138.246 103.687 132.853C106.6 127.46 112.04 123.661 117.964 122.253C126.018 120.324 133.814 122.776 141.051 126.497C147.818 129.977 160.255 139.421 168.823 147.002C170.675 148.613 172.348 150.422 173.81 152.395C175.208 154.28 176.281 156.386 176.987 158.625C178.274 161.328 178.295 164.921 177.492 168.906Z" fill="#170C2C"/>
<path d="M129.017 150.066L134.098 140.767" stroke="white" stroke-width="1.82927" stroke-linecap="round" stroke-linejoin="round"/>
<path d="M64.5789 157.707L61.0908 181.595" stroke="white" stroke-width="1.82927" stroke-linecap="round" stroke-linejoin="round"/>
<path d="M135.552 188.81L152.341 203.675" stroke="white" stroke-width="1.82927" stroke-linecap="round" stroke-linejoin="round"/>
<path d="M123.207 82.3732C124.378 82.3732 125.327 81.3024 125.327 79.9815C125.327 78.6606 124.378 77.5898 123.207 77.5898C122.037 77.5898 121.088 78.6606 121.088 79.9815C121.088 81.3024 122.037 82.3732 123.207 82.3732Z" fill="#415AFF"/>
<path fill-rule="evenodd" clip-rule="evenodd" d="M135.098 84.9603C135.071 87.8877 132.68 90.2411 129.753 90.2224C126.825 90.2037 124.465 87.8199 124.475 84.8924C124.485 81.9649 126.861 79.5973 129.789 79.5987C130.122 79.5976 130.454 79.6301 130.781 79.6955C131.524 79.8347 132.228 80.1348 132.843 80.5747C134.153 81.5039 134.976 82.9729 135.085 84.5756C135.096 84.7091 135.098 84.8321 135.098 84.9603V84.9603Z" stroke="#010149" stroke-width="1.82927" stroke-linecap="round" stroke-linejoin="round"/>
<path d="M133.022 82.0393C133.022 82.4926 132.972 82.9446 132.873 83.3869C132.26 86.1807 129.788 88.1736 126.928 88.1807C126.418 88.1814 125.91 88.1172 125.416 87.9897C124.304 86.356 124.182 84.2432 125.097 82.4921C126.013 80.741 127.818 79.6357 129.793 79.6162C130.126 79.6152 130.459 79.6477 130.785 79.7131C131.528 79.8523 132.232 80.1524 132.847 80.5923C132.963 81.0658 133.022 81.5517 133.022 82.0393Z" fill="#170C2C"/>
<path d="M135.083 84.5862C134.267 84.3491 133.512 83.9405 132.867 83.3878C131.752 82.4499 131.009 81.1439 130.773 79.7061C131.517 79.8453 132.22 80.1454 132.835 80.5853C134.148 81.5134 134.973 82.9826 135.083 84.5862Z" fill="#170C2C"/>
<path d="M124.474 83.5026C126.094 83.5026 127.408 82.1788 127.408 80.5458C127.408 78.9127 126.094 77.5889 124.474 77.5889C122.854 77.5889 121.541 78.9127 121.541 80.5458C121.541 82.1788 122.854 83.5026 124.474 83.5026Z" fill="#170C2C"/>
<path d="M104.902 83.2225C105.545 83.2225 106.066 82.6977 106.066 82.0502C106.066 81.4028 105.545 80.8779 104.902 80.8779C104.259 80.8779 103.737 81.4028 103.737 82.0502C103.737 82.6977 104.259 83.2225 104.902 83.2225Z" fill="#170C2C"/>
</svg>
