<svg width="1341" height="1200" viewBox="0 0 1341 1200" fill="none" xmlns="http://www.w3.org/2000/svg">
<path fill-rule="evenodd" clip-rule="evenodd" d="M350.538 1036.5H991.569C1060.9 1036.5 1101.42 997.44 1101.42 928.601V578.084L1164.4 635.693C1174.65 645.458 1185.88 652.293 1199.55 652.293C1222.5 652.293 1241.05 638.135 1241.05 614.7C1241.05 600.054 1235.68 590.777 1226.4 582.478L1056.99 427.712L922.242 305.17L729.396 129.411C712.308 113.788 691.803 105 670.81 105C649.816 105 629.311 113.788 612.223 129.411L115.217 582.478C106.429 590.777 100.57 600.054 100.57 614.7C100.57 638.135 119.123 652.293 142.069 652.293C156.227 652.293 167.456 645.458 177.221 635.693L240.201 578.572V928.601C240.201 997.44 280.723 1036.5 350.538 1036.5ZM367.138 957.894H448.426H529.714H670.565H811.416H974.97C1005.73 957.894 1022.82 940.807 1022.82 909.073V707.938V506.804L855.6 354.236L688.385 201.667C683.015 196.297 677.156 193.856 670.81 193.856C664.463 193.856 658.604 196.785 653.722 201.667L486.263 354.236L318.804 506.804V707.938V909.073C318.804 940.807 335.892 957.894 367.138 957.894Z" fill="black"/>
</svg>
