<svg width="17" height="22" viewBox="0 0 17 22" fill="none" xmlns="http://www.w3.org/2000/svg">
<path d="M1.83984 21.4473C2.33789 21.4473 2.64062 21.1934 3.61719 20.207L8.36328 15.4805C8.41211 15.4414 8.45117 15.4023 8.5 15.4023C8.53906 15.4023 8.58789 15.4414 8.63672 15.4805L13.3828 20.207C14.3398 21.1738 14.6621 21.4473 15.1602 21.4473C15.7656 21.4473 16.2441 21.0762 16.2441 20.1875V3.53711C16.2441 1.50586 15.2383 0.480469 13.2168 0.480469H3.7832C1.76172 0.480469 0.755859 1.50586 0.755859 3.53711V20.1875C0.755859 21.0762 1.23438 21.4473 1.83984 21.4473ZM2.57227 19.0742C2.43555 19.2109 2.32812 19.1719 2.32812 18.9863V3.56641C2.32812 2.58984 2.8457 2.05273 3.86133 2.05273H13.1387C14.1445 2.05273 14.6719 2.58984 14.6719 3.56641V18.9863C14.6719 19.1719 14.5645 19.2012 14.4277 19.0742L8.98828 13.6934C8.8125 13.5176 8.63672 13.4688 8.5 13.4688C8.35352 13.4688 8.1875 13.5176 8.01172 13.6934L2.57227 19.0742Z" fill="#44464D"/>
</svg>
