<svg width="424" height="143" viewBox="0 0 424 143" fill="none" xmlns="http://www.w3.org/2000/svg">
<path d="M279.992 43.4189C270.396 47.7985 260.937 52.4605 251.614 57.4049C251.451 57.4874 246.599 48.5462 246.263 47.9538C243.396 42.7828 240.701 37.5317 237.451 32.5816C235.784 30.0459 233.874 27.6783 231.747 25.5121C229.522 23.2374 227.056 21.9604 223.852 21.6666L212.146 20.5645C211.506 20.465 210.854 20.4839 210.222 20.6203C209.601 20.7951 209.02 21.2612 208.901 21.8924C208.777 22.56 209.186 23.2179 209.691 23.6695C211.041 24.8833 212.99 25.0776 214.799 25.3398C217.626 25.7525 218.073 26.0875 220.741 27.1023" stroke="#010149" stroke-width="0.61"/>
<path d="M394.373 142.52H382.594C381.115 142.521 379.766 141.676 379.123 140.348C378.48 139.019 378.656 137.439 379.575 136.284L379.818 131.025L349.93 140.561C346.134 141.858 342.149 142.52 338.136 142.52C330.724 142.521 323.813 138.785 319.763 132.589L295.129 94.9178L260.833 108.756L269.923 142.52H243.608C240.166 142.52 238.697 138.15 241.446 136.082L244.031 134.14L236.163 104.017C234.256 96.7144 238.084 89.1354 245.099 86.3213C247.045 85.5396 248.562 84.9351 248.959 84.7676C259.342 80.3977 269.862 75.7657 280.335 71.3788C285.188 69.342 290.099 67.3974 295.024 65.5523C300.042 63.6684 305.529 62.1171 310.895 63.3674C316.26 64.6176 320.58 68.6088 322.888 73.5273C324.068 76.0281 324.725 78.7423 324.82 81.5048C324.887 82.8369 324.786 84.1722 324.518 85.4789C324.331 86.3043 323.513 89.254 323.513 89.254L325.403 92.4319L336.769 111.543L340.085 117.127L341.758 116.724L390.676 105.012L394.373 142.52Z" fill="#170C2C"/>
<path d="M186.951 60.5C203.363 60.5 216.951 46.9118 216.951 30.5C216.951 14.1176 203.334 0.5 186.922 0.5C170.54 0.5 156.951 14.1176 156.951 30.5C156.951 46.9118 170.569 60.5 186.951 60.5ZM186.951 55.5C173.069 55.5 161.981 44.3824 161.981 30.5C161.981 16.6471 173.04 5.5 186.922 5.5C200.804 5.5 211.922 16.6471 211.951 30.5C211.981 44.3824 200.834 55.5 186.951 55.5ZM186.334 36.5882C187.834 36.5882 188.716 35.6765 188.716 34.5V34.1471C188.716 32.5 189.687 31.4706 191.716 30.1176C194.569 28.2353 196.598 26.5 196.598 23C196.598 18.0882 192.245 15.4706 187.275 15.4706C182.216 15.4706 178.892 17.8529 178.069 20.5588C177.922 21.0588 177.834 21.5294 177.834 22.0294C177.834 23.3235 178.863 24.0588 179.834 24.0588C181.51 24.0588 181.775 23.1471 182.716 22.0588C183.687 20.4412 185.098 19.4706 187.069 19.4706C189.745 19.4706 191.51 20.9706 191.51 23.2353C191.51 25.2353 190.245 26.2059 187.687 27.9706C185.569 29.4412 184.01 31 184.01 33.8824V34.2647C184.01 35.8235 184.834 36.5882 186.334 36.5882ZM186.275 45.3824C187.981 45.3824 189.451 44.0294 189.451 42.3235C189.451 40.5882 188.01 39.2647 186.275 39.2647C184.54 39.2647 183.098 40.6176 183.098 42.3235C183.098 44 184.569 45.3824 186.275 45.3824Z" fill="#5C5F67"/>
<path d="M220.734 26.6873C221.549 28.4238 221.878 30.3484 221.685 32.2564C221.572 33.4297 221.254 34.5741 220.746 35.6382" stroke="#010149" stroke-width="0.61"/>
<path d="M280.537 63.051L261.078 72.6987C256.919 74.7622 252.064 76.7918 247.324 75.93C242.474 75.0511 239.582 70.7541 237.434 66.7047C234.343 60.8782 231.11 55.4061 228.153 49.5117C227.851 48.9072 225.83 44.6344 225.501 44.6829C223.869 44.9257 222.128 45.0204 220.637 44.3164C219.09 43.5881 217.925 41.9882 217.397 40.3689C214.434 38.7642 215.42 37.1619 212.455 35.5596C211.637 35.1178 210.793 34.6492 210.265 33.8845C209.738 33.1198 209.667 31.9666 210.351 31.3427C210.895 30.8572 211.708 30.8305 212.44 30.8572C216.859 30.9737 217.322 31.4204 221.683 32.1924" stroke="#010149" stroke-width="0.61"/>
<path fill-rule="evenodd" clip-rule="evenodd" d="M261.078 72.6987C256.919 74.7622 252.064 76.7918 247.324 75.93C242.474 75.0511 239.582 70.7541 237.434 66.7047C234.343 60.8782 231.11 55.4061 228.153 49.5117C227.851 48.9072 225.83 44.6344 225.501 44.6829C223.869 44.9257 222.128 45.0204 220.637 44.3164C219.09 43.5881 217.925 41.9882 217.397 40.3689C214.434 38.7642 215.42 37.1619 212.455 35.5596C211.637 35.1178 210.793 34.6492 210.265 33.8845C209.738 33.1198 209.667 31.9666 210.351 31.3427C210.895 30.8572 211.708 30.8305 212.44 30.8572C216.859 30.9737 217.322 31.4204 221.683 32.1924" fill="white"/>
<path d="M261.078 72.6987C256.919 74.7622 252.064 76.7918 247.324 75.93C242.474 75.0511 239.582 70.7541 237.434 66.7047C234.343 60.8782 231.11 55.4061 228.153 49.5117C227.851 48.9072 225.83 44.6344 225.501 44.6829C223.869 44.9257 222.128 45.0204 220.637 44.3164C219.09 43.5881 217.925 41.9882 217.397 40.3689C214.434 38.7642 215.42 37.1619 212.455 35.5596C211.637 35.1178 210.793 34.6492 210.265 33.8845C209.738 33.1198 209.667 31.9666 210.351 31.3427C210.895 30.8572 211.708 30.8305 212.44 30.8572C216.859 30.9737 217.322 31.4204 221.683 32.1924" stroke="#010149" stroke-width="0.4"/>
<path d="M251.306 56.9192L254.611 62.3985" stroke="#010149" stroke-width="0.61"/>
<path d="M295.128 94.9179L304.658 91.0773" stroke="white" stroke-width="0.3"/>
<path d="M260.838 108.746L258.921 101.621" stroke="white" stroke-width="0.3"/>
<path d="M308.221 52.027L333.415 68.3509C333.227 69.2904 332.875 70.4217 332.59 71.3394C330.527 78.0156 328.355 84.6918 325.867 91.215C323.175 98.2675 320.927 105.488 321.292 113.091C321.399 115.322 321.966 117.548 323.165 119.449C324.184 121.064 325.962 123.491 327.876 124.033C329.029 124.358 330.338 123.547 330.401 122.348" stroke="#010149" stroke-width="0.61"/>
<path d="M326.58 117.398L329.688 121.462C330.094 122.028 330.555 122.551 331.065 123.026C331.43 123.377 331.872 123.639 332.356 123.791C332.855 123.926 333.386 123.873 333.847 123.64C334.155 123.482 334.453 123.307 334.743 123.118C335.039 122.936 335.346 122.771 335.638 122.579" stroke="#010149" stroke-width="0.231683"/>
<path d="M331.636 118.117C333.026 119.882 334.54 121.545 336.168 123.094C336.378 123.324 336.639 123.502 336.931 123.613C337.418 123.754 337.919 123.521 338.337 123.244C338.899 122.87 339.429 122.358 339.553 121.693" stroke="#010149" stroke-width="0.231683"/>
<path d="M334.716 116.522L338.138 120.326C338.958 121.234 340.213 122.47 341.341 121.202C342.331 120.088 342.248 118.391 341.859 117.053C341.52 115.974 341.002 114.959 340.327 114.05C339.817 113.289 339.184 112.617 338.454 112.062C337.968 111.72 337.399 111.448 336.817 111.533C336.644 111.55 336.479 111.618 336.345 111.729C336.024 112.021 336.102 112.538 336.212 112.955C336.744 114.8 337.75 116.474 339.13 117.811" stroke="#010149" stroke-width="0.61"/>
<path d="M341.186 115.548C342.287 112.576 341.305 109.234 338.771 107.325C343.813 97.2384 348.276 86.5565 352.182 75.979C352.961 73.8693 353.719 71.7402 354.089 69.5237C354.729 65.7122 353.469 62.311 351.102 59.286C346.685 53.6465 340.128 49.2208 334.354 45.0815L328.477 40.867C324.748 38.1966 321.018 35.5342 317.289 32.8799" stroke="#010149" stroke-width="0.61"/>
<path d="M333.414 68.3508L337.542 71.0237" stroke="#010149" stroke-width="0.61"/>
<path d="M330.398 122.348C330.338 123.54 329.027 124.359 327.878 124.033C325.959 123.494 324.186 121.064 323.165 119.45C321.966 117.546 321.399 115.323 321.292 113.092C320.946 105.925 322.924 99.0982 325.405 92.4318" stroke="white" stroke-width="0.61"/>
<path d="M326.58 117.398L329.688 121.462C330.094 122.028 330.555 122.551 331.065 123.026C331.43 123.377 331.872 123.639 332.356 123.791C332.855 123.926 333.386 123.873 333.847 123.64C334.154 123.482 334.453 123.307 334.742 123.118C335.039 122.936 335.346 122.771 335.637 122.579" stroke="white" stroke-width="0.61"/>
<path d="M331.636 118.117C333.026 119.882 334.54 121.545 336.168 123.094C336.378 123.324 336.639 123.502 336.932 123.613C337.418 123.754 337.919 123.521 338.337 123.244C338.899 122.87 339.429 122.358 339.554 121.693" stroke="white" stroke-width="0.61"/>
<path d="M339.125 117.816C337.745 116.479 336.739 114.805 336.207 112.96C336.085 112.545 336.019 112.028 336.34 111.734C336.462 111.632 336.611 111.566 336.768 111.545" stroke="white" stroke-width="0.61"/>
<path d="M334.718 116.522L338.138 120.329C338.958 121.237 340.213 122.47 341.341 121.203C342.334 120.088 342.249 118.391 341.859 117.056C341.828 116.945 341.794 116.838 341.757 116.731" stroke="white" stroke-width="0.61"/>
<path d="M304.237 55.8611L302.96 56.4244C299.11 58.1764 295.173 59.7345 291.166 61.0928C291.11 61.1098 291.057 61.1292 291.001 61.1414C290.968 61.1533 290.935 61.1631 290.901 61.1705H290.886C289.852 61.4356 288.757 61.3048 287.814 60.8039C286.373 60.0481 285.415 58.6135 285.27 56.9949C285.246 56.7375 285.224 56.4802 285.202 56.2253C285.18 55.9704 285.161 55.7179 285.141 55.463C285.117 55.1328 285.093 54.8026 285.073 54.47C284.949 52.5133 284.871 50.525 285.107 48.595C285.197 47.8043 285.353 47.0223 285.572 46.2571C285.571 46.2499 285.571 46.2425 285.572 46.2353C286.331 43.6061 288.094 41.1686 290.612 40.3311C293.129 39.4935 295.924 40.3602 298.11 41.9552C299.976 43.3244 301.455 45.1695 302.814 47.0874C303.058 47.4103 303.272 47.738 303.498 48.0585L303.894 48.6411C303.916 48.6703 303.938 48.6994 303.958 48.731C303.958 48.7504 303.984 48.7649 303.994 48.7819L304.145 49.0053L304.223 49.117C304.653 49.7506 305.081 50.3794 305.507 51.013C306.657 52.7342 306.032 55.0673 304.237 55.8611Z" fill="#1C3BC7"/>
<path fill-rule="evenodd" clip-rule="evenodd" d="M290.994 36.4517C287.931 36.4517 285.448 33.9735 285.448 30.9165C285.448 27.8595 287.931 25.3813 290.994 25.3813C294.056 25.3813 296.539 27.8595 296.539 30.9165C296.539 33.9735 294.056 36.4517 290.994 36.4517Z" stroke="#010149" stroke-width="0.61"/>
<path d="M244.031 134.135L268.492 137.204" stroke="white" stroke-width="0.3"/>
<path d="M379.806 131.025L383.155 106.814" stroke="white" stroke-width="0.3"/>
<path d="M285.448 30.5397C284.533 30.5397 283.792 29.7995 283.792 28.8864C283.792 27.9733 284.533 27.2332 285.448 27.2332C286.363 27.2332 287.105 27.9733 287.105 28.8864C287.105 29.7995 286.363 30.5397 285.448 30.5397Z" fill="#170C2C"/>
<path d="M288.8 29.6489C286.438 29.6489 284.524 27.738 284.524 25.3809C284.524 23.0238 286.438 21.113 288.8 21.113C291.162 21.113 293.076 23.0238 293.076 25.3809C293.076 27.738 291.162 29.6489 288.8 29.6489Z" fill="#170C2C"/>
<path d="M293.076 31.8606C290.192 31.8606 287.854 29.527 287.854 26.6483C287.854 23.7697 290.192 21.436 293.076 21.436C295.96 21.436 298.298 23.7697 298.298 26.6483C298.298 29.527 295.96 31.8606 293.076 31.8606Z" fill="#170C2C"/>
<path d="M317.287 57.9022L328.478 40.8669" stroke="#010149" stroke-width="0.61" stroke-linecap="round" stroke-linejoin="round"/>
<path d="M271.54 47.366L277.151 64.7993" stroke="#010149" stroke-width="0.61" stroke-linecap="round" stroke-linejoin="round"/>
<path d="M21.3218 142.464H203.423C210.961 129.538 214.125 113.4 207.001 98.842C202.694 90.0661 193.6 83.0671 185.465 86.6653C176.906 90.4489 174.492 102.936 173.516 113.501C173.169 95.4856 162.721 78.2803 148.212 71.8374C141.852 69.0168 134.686 68.1666 128.198 70.5762C121.709 72.9857 116.058 78.925 114.227 86.5324C112.306 94.5105 114.644 103.004 117.572 110.559C111.212 99.253 100.326 92.3225 89.173 88.4584C81.837 85.9199 74.0251 84.5177 66.5084 86.2141C58.9918 87.9104 51.7982 93.0921 48.3942 101.05C45.4695 107.9 45.9627 116.797 49.9607 122.696C43.8613 116.821 34.1459 116.188 27.7547 121.805C22.4368 126.487 20.0852 134.921 21.3218 142.464Z" fill="#FFC682"/>
<path d="M0 142.5H424H0Z" fill="white"/>
<path d="M0 142.5H424" stroke="#010149" stroke-width="0.304582"/>
</svg>
