<svg width="23" height="22" viewBox="0 0 23 22" fill="none" xmlns="http://www.w3.org/2000/svg">
<path d="M11.5 20.5098C11.7539 20.5098 11.998 20.4805 12.2617 20.4609L12.8184 21.5352C12.9258 21.75 13.1406 21.8672 13.4141 21.8281C13.6582 21.7793 13.8242 21.6035 13.8633 21.3398L14.0293 20.1582C14.5176 20.0312 14.9961 19.8457 15.4551 19.6406L16.334 20.4316C16.5195 20.6074 16.7539 20.6465 16.998 20.5098C17.2129 20.3926 17.3008 20.1582 17.252 19.9043L17.0078 18.7324C17.418 18.4492 17.8184 18.127 18.1797 17.7656L19.2637 18.2246C19.5078 18.3223 19.7422 18.2734 19.9277 18.0488C20.0938 17.873 20.1133 17.6191 19.9668 17.4043L19.332 16.3887C19.625 15.9785 19.8594 15.5391 20.084 15.0703L21.2852 15.1289C21.5391 15.1387 21.7441 15.002 21.832 14.7578C21.9102 14.5137 21.8418 14.2793 21.6367 14.123L20.6992 13.3809C20.8262 12.9121 20.9238 12.4043 20.9727 11.877L22.0957 11.5254C22.3496 11.4375 22.4961 11.252 22.4961 10.9883C22.4961 10.7344 22.3496 10.5488 22.0957 10.4609L20.9727 10.0996C20.9238 9.57227 20.8262 9.08398 20.6992 8.60547L21.6367 7.85352C21.832 7.70703 21.9102 7.48242 21.832 7.23828C21.7441 6.99414 21.5391 6.85742 21.2852 6.86719L20.084 6.91602C19.8594 6.44727 19.625 6.00781 19.332 5.59766L19.9668 4.58203C20.1035 4.37695 20.084 4.12305 19.9277 3.94727C19.7422 3.72266 19.5078 3.66406 19.2637 3.77148L18.1797 4.21094C17.8184 3.86914 17.418 3.53711 17.0078 3.25391L17.252 2.0918C17.3008 1.82812 17.2129 1.59375 16.998 1.47656C16.7539 1.34961 16.5195 1.36914 16.334 1.56445L15.4551 2.33594C14.9961 2.13086 14.5176 1.96484 14.0293 1.82812L13.8633 0.646484C13.8242 0.392578 13.6484 0.207031 13.4043 0.167969C13.1406 0.128906 12.9258 0.236328 12.8184 0.451172L12.2617 1.52539C11.998 1.50586 11.7539 1.48633 11.5 1.48633C11.2363 1.48633 11.002 1.50586 10.7383 1.52539L10.1719 0.451172C10.0645 0.236328 9.84961 0.128906 9.58594 0.167969C9.3418 0.207031 9.16602 0.392578 9.13672 0.646484L8.96094 1.81836C8.47266 1.96484 8.00391 2.13086 7.53516 2.33594L6.65625 1.56445C6.4707 1.36914 6.23633 1.34961 5.99219 1.47656C5.77734 1.59375 5.68945 1.82812 5.73828 2.0918L5.98242 3.25391C5.58203 3.53711 5.17188 3.86914 4.81055 4.21094L3.72656 3.77148C3.48242 3.66406 3.25781 3.72266 3.07227 3.94727C2.90625 4.12305 2.88672 4.37695 3.02344 4.57227L3.6582 5.59766C3.375 6.00781 3.13086 6.44727 2.90625 6.91602L1.71484 6.86719C1.46094 6.85742 1.24609 6.99414 1.1582 7.23828C1.08008 7.48242 1.14844 7.70703 1.35352 7.85352L2.29102 8.60547C2.16406 9.08398 2.06641 9.57227 2.03711 10.0996L0.894531 10.4609C0.640625 10.5391 0.503906 10.7246 0.503906 10.9883C0.503906 11.252 0.640625 11.4375 0.894531 11.5254L2.03711 11.8867C2.06641 12.4043 2.16406 12.9121 2.29102 13.3809L1.35352 14.123C1.1582 14.2793 1.08984 14.5137 1.1582 14.7578C1.24609 15.002 1.46094 15.1387 1.71484 15.1289L2.90625 15.0703C3.13086 15.5391 3.375 15.9785 3.6582 16.3887L3.02344 17.4043C2.88672 17.6191 2.90625 17.873 3.07227 18.0488C3.25781 18.2734 3.48242 18.3223 3.72656 18.2246L4.81055 17.7656C5.17188 18.127 5.58203 18.4492 5.98242 18.7324L5.73828 19.9043C5.68945 20.1582 5.77734 20.3926 5.99219 20.5098C6.23633 20.6465 6.4707 20.6074 6.65625 20.4316L7.53516 19.6406C8.00391 19.8457 8.47266 20.0312 8.96094 20.1582L9.13672 21.3398C9.16602 21.6035 9.3418 21.7793 9.58594 21.8281C9.84961 21.8672 10.0645 21.75 10.1719 21.5352L10.7383 20.4609C10.9922 20.4805 11.2363 20.5098 11.5 20.5098ZM13.9512 10.373C13.502 9.14258 12.5938 8.46875 11.4805 8.46875C11.3047 8.46875 11.1191 8.48828 10.7969 8.55664L7.99414 3.77148C9.04883 3.25391 10.2305 2.9707 11.5 2.9707C15.7578 2.9707 19.0977 6.20312 19.4102 10.373H13.9512ZM3.57031 10.998C3.57031 8.2832 4.85938 5.89062 6.87109 4.44531L9.70312 9.25977C9.16602 9.80664 8.92188 10.4023 8.92188 11.0371C8.92188 11.6523 9.15625 12.2188 9.69336 12.7852L6.8125 17.5117C4.83008 16.0566 3.57031 13.6934 3.57031 10.998ZM10.3086 11.0273C10.3086 10.3633 10.8652 9.8457 11.5 9.8457C12.1543 9.8457 12.7012 10.3633 12.7012 11.0273C12.7012 11.6816 12.1543 12.2188 11.5 12.2188C10.8652 12.2188 10.3086 11.6816 10.3086 11.0273ZM11.5 19.0254C10.2012 19.0254 8.99023 18.7227 7.92578 18.1953L10.7969 13.498C11.0996 13.5762 11.3047 13.5957 11.4805 13.5957C12.6035 13.5957 13.5117 12.9023 13.9512 11.6426H19.4004C19.0879 15.793 15.7578 19.0254 11.5 19.0254Z" fill="#44464D"/>
</svg>
