<svg xmlns="http://www.w3.org/2000/svg" viewBox="0 0 133.13 115.24"><defs><style>.cls-1{fill:#415aff;}.cls-1,.cls-2,.cls-3,.cls-4{fill-rule:evenodd;}.cls-2{fill:#78d8ae;}.cls-3{fill:#abedcf;}.cls-4{fill:#73a8ff;}</style></defs><g id="Layer_2" data-name="Layer 2"><g id="Layer_1-2" data-name="Layer 1"><polygon id="Fill-1" class="cls-1" points="0 115.25 41.71 115.25 41.71 73.53 0 73.53 0 115.25"/><path id="Fill-4-2" class="cls-1" d="M81.07,1.22c0,1-.07,1.92-.13,2.81A74.35,74.35,0,0,1,69.31,39.61v.32A22.12,22.12,0,0,1,91.42,62v53.15h41.71V63.89A63.84,63.84,0,0,0,81.07,1.22"/><path id="path-1-2" class="cls-2" d="M0,65.19C37.3,67.4,69.27,39.81,71.5,3.49c.07-1.08.13-2.15.13-3.23C29.66-3.17.87,27.8,0,62L0,63.4Z"/><path class="cls-3" d="M1.66,49.29c4-.7,17.67-5.13,17.67-5.13s12.12-6.57,17.52-18.71a20.82,20.82,0,0,0-.83-19A63.36,63.36,0,0,0,1.66,49.29Z"/><path class="cls-4" d="M31.05,35.78c-12.92.43-25.64,5.82-27.36,6.57A62.76,62.76,0,0,0,0,62L0,63.4v1.79A68,68,0,0,0,59.81,36.76C53.89,37.63,44.72,35.33,31.05,35.78Z"/></g></g></svg>