<svg width="19" height="19" viewBox="0 0 19 19" fill="none" xmlns="http://www.w3.org/2000/svg">
<path d="M9.53809 18.6191C14.4424 18.6191 18.5029 14.5586 18.5029 9.6543C18.5029 4.75879 14.4336 0.689453 9.5293 0.689453C4.63379 0.689453 0.573242 4.75879 0.573242 9.6543C0.573242 14.5586 4.64258 18.6191 9.53809 18.6191ZM9.53809 17.125C5.38965 17.125 2.07617 13.8027 2.07617 9.6543C2.07617 5.51465 5.38086 2.18359 9.5293 2.18359C13.6777 2.18359 17 5.51465 17.0088 9.6543C17.0176 13.8027 13.6865 17.125 9.53809 17.125ZM9.35352 11.4736C9.80176 11.4736 10.0654 11.2012 10.0654 10.8496V10.7441C10.0654 10.252 10.3555 9.94434 10.9619 9.54004C11.8145 8.97754 12.4209 8.45898 12.4209 7.41309C12.4209 5.94531 11.1201 5.16309 9.63477 5.16309C8.12305 5.16309 7.12988 5.875 6.88379 6.68359C6.83984 6.83301 6.81348 6.97363 6.81348 7.12305C6.81348 7.50977 7.12109 7.72949 7.41113 7.72949C7.91211 7.72949 7.99121 7.45703 8.27246 7.13184C8.5625 6.64844 8.98438 6.3584 9.57324 6.3584C10.373 6.3584 10.9004 6.80664 10.9004 7.4834C10.9004 8.08105 10.5225 8.37109 9.75781 8.89844C9.125 9.33789 8.65918 9.80371 8.65918 10.665V10.7793C8.65918 11.2451 8.90527 11.4736 9.35352 11.4736ZM9.33594 14.1016C9.8457 14.1016 10.2852 13.6973 10.2852 13.1875C10.2852 12.6689 9.85449 12.2734 9.33594 12.2734C8.81738 12.2734 8.38672 12.6777 8.38672 13.1875C8.38672 13.6885 8.82617 14.1016 9.33594 14.1016Z" fill="#44464D"/>
</svg>
