<svg width="20" height="19" viewBox="0 0 20 19" fill="none" xmlns="http://www.w3.org/2000/svg">
<path d="M5.64648 18.3135C6.08594 18.3135 6.38477 18.085 6.91211 17.6104L9.95312 14.9121H15.5869C18.2061 14.9121 19.6123 13.4619 19.6123 10.8867V4.1543C19.6123 1.5791 18.2061 0.128906 15.5869 0.128906H4.2666C1.65625 0.128906 0.241211 1.57031 0.241211 4.1543V10.8867C0.241211 13.4707 1.65625 14.9121 4.2666 14.9121H4.68848V17.1973C4.68848 17.874 5.04004 18.3135 5.64648 18.3135ZM6.00684 16.7051V14.2529C6.00684 13.7783 5.72559 13.4971 5.25977 13.4971H4.27539C2.49121 13.4971 1.65625 12.5918 1.65625 10.8779V4.1543C1.65625 2.44043 2.49121 1.54395 4.27539 1.54395H15.5869C17.3623 1.54395 18.1973 2.44043 18.1973 4.1543V10.8779C18.1973 12.5918 17.3623 13.4971 15.5869 13.4971H9.8916C9.4082 13.4971 9.15332 13.5674 8.81934 13.9102L6.00684 16.7051Z" fill="#44464D"/>
</svg>
