<svg width="29" height="24" viewBox="0 0 29 24" fill="none" xmlns="http://www.w3.org/2000/svg">
<mask id="path-1-inside-1" fill="white">
<path fill-rule="evenodd" clip-rule="evenodd" d="M22.0218 7.74682L25.5574 10.9767C25.751 11.1499 25.8631 11.3435 25.8631 11.6492C25.8631 12.1382 25.4759 12.4337 24.997 12.4337C24.7117 12.4337 24.4774 12.2911 24.2634 12.0873L22.949 10.885V18.2002C22.949 19.6368 22.1034 20.4519 20.6565 20.4519H7.27848C5.82146 20.4519 4.97578 19.6368 4.97578 18.2002V10.8952L3.66141 12.0873C3.45764 12.2911 3.22329 12.4337 2.92781 12.4337C2.44893 12.4337 2.06175 12.1382 2.06175 11.6492C2.06175 11.3435 2.18402 11.1499 2.36742 10.9767L12.7397 1.52139C13.0963 1.19535 13.5243 1.01195 13.9624 1.01195C14.4005 1.01195 14.8285 1.19535 15.1851 1.52139L19.2097 5.18941L22.0218 7.74682ZM19.3983 4.98245L22.2102 7.53966L25.7441 10.768C25.8592 10.8712 25.9627 10.9918 26.035 11.1416C26.1081 11.2931 26.1431 11.4605 26.1431 11.6492C26.1431 11.9736 26.012 12.2478 25.7924 12.437C25.5771 12.6225 25.2924 12.7137 24.997 12.7137C24.6097 12.7137 24.3099 12.5178 24.0724 12.2921L23.229 11.5206V18.2002C23.229 18.9735 23.0003 19.6163 22.541 20.065C22.0828 20.5129 21.4314 20.7319 20.6565 20.7319H7.27848C6.49897 20.7319 5.84508 20.5132 5.38536 20.0654C4.92458 19.6165 4.69577 18.9735 4.69577 18.2002V11.5272L3.85441 12.2903C3.62221 12.521 3.3223 12.7137 2.92781 12.7137C2.63242 12.7137 2.34774 12.6225 2.1324 12.437C1.91287 12.2478 1.78174 11.9737 1.78174 11.6492C1.78174 11.2466 1.95202 10.9839 2.17516 10.7731L2.17875 10.7697L12.5508 1.31474C12.9507 0.949078 13.4439 0.731934 13.9624 0.731934C14.4808 0.731934 14.9738 0.94896 15.3737 1.31444M15.3737 1.31444L19.3983 4.98245L15.3737 1.31444ZM13.6058 3.02935L6.6162 9.39743V17.7926C6.6162 18.4549 6.97281 18.8115 7.6249 18.8115H20.3101C20.952 18.8115 21.3086 18.4549 21.3086 17.7926V9.39743L14.3292 3.02935C14.2171 2.91728 14.0949 2.86633 13.9624 2.86633C13.83 2.86633 13.7077 2.92747 13.6058 3.02935ZM21.0286 9.52099L14.131 3.22756C14.0657 3.16223 14.0128 3.14635 13.9624 3.14635C13.9214 3.14635 13.8668 3.1644 13.8038 3.22736L13.7946 3.23657L6.89621 9.52112V17.7926C6.89621 18.0753 6.97171 18.2493 7.07475 18.3531C7.17748 18.4566 7.34841 18.5315 7.6249 18.5315H20.3101C20.5804 18.5315 20.7487 18.4573 20.8506 18.3539C20.9531 18.2499 21.0286 18.0753 21.0286 17.7926V9.52099Z"/>
<path fill-rule="evenodd" clip-rule="evenodd" d="M25.5574 10.9767L22.0218 7.74682L19.2097 5.18941L15.1851 1.52139C14.8285 1.19535 14.4005 1.01195 13.9624 1.01195C13.5243 1.01195 13.0963 1.19535 12.7397 1.52139L2.36742 10.9767C2.18402 11.1499 2.06175 11.3435 2.06175 11.6492C2.06175 12.1382 2.44893 12.4337 2.92781 12.4337C3.22329 12.4337 3.45764 12.2911 3.66141 12.0873L4.97578 10.8952V18.2002C4.97578 19.6368 5.82146 20.4519 7.27848 20.4519H20.6565C22.1034 20.4519 22.949 19.6368 22.949 18.2002V10.885L24.2634 12.0873C24.4774 12.2911 24.7117 12.4337 24.997 12.4337C25.4759 12.4337 25.8631 12.1382 25.8631 11.6492C25.8631 11.3435 25.751 11.1499 25.5574 10.9767ZM6.6162 9.39743L13.6058 3.02935C13.7077 2.92747 13.83 2.86633 13.9624 2.86633C14.0949 2.86633 14.2171 2.91728 14.3292 3.02935L21.3086 9.39743V17.7926C21.3086 18.4549 20.952 18.8115 20.3101 18.8115H7.6249C6.97281 18.8115 6.6162 18.4549 6.6162 17.7926V9.39743Z"/>
</mask>
<path fill-rule="evenodd" clip-rule="evenodd" d="M22.0218 7.74682L25.5574 10.9767C25.751 11.1499 25.8631 11.3435 25.8631 11.6492C25.8631 12.1382 25.4759 12.4337 24.997 12.4337C24.7117 12.4337 24.4774 12.2911 24.2634 12.0873L22.949 10.885V18.2002C22.949 19.6368 22.1034 20.4519 20.6565 20.4519H7.27848C5.82146 20.4519 4.97578 19.6368 4.97578 18.2002V10.8952L3.66141 12.0873C3.45764 12.2911 3.22329 12.4337 2.92781 12.4337C2.44893 12.4337 2.06175 12.1382 2.06175 11.6492C2.06175 11.3435 2.18402 11.1499 2.36742 10.9767L12.7397 1.52139C13.0963 1.19535 13.5243 1.01195 13.9624 1.01195C14.4005 1.01195 14.8285 1.19535 15.1851 1.52139L19.2097 5.18941L22.0218 7.74682ZM19.3983 4.98245L22.2102 7.53966L25.7441 10.768C25.8592 10.8712 25.9627 10.9918 26.035 11.1416C26.1081 11.2931 26.1431 11.4605 26.1431 11.6492C26.1431 11.9736 26.012 12.2478 25.7924 12.437C25.5771 12.6225 25.2924 12.7137 24.997 12.7137C24.6097 12.7137 24.3099 12.5178 24.0724 12.2921L23.229 11.5206V18.2002C23.229 18.9735 23.0003 19.6163 22.541 20.065C22.0828 20.5129 21.4314 20.7319 20.6565 20.7319H7.27848C6.49897 20.7319 5.84508 20.5132 5.38536 20.0654C4.92458 19.6165 4.69577 18.9735 4.69577 18.2002V11.5272L3.85441 12.2903C3.62221 12.521 3.3223 12.7137 2.92781 12.7137C2.63242 12.7137 2.34774 12.6225 2.1324 12.437C1.91287 12.2478 1.78174 11.9737 1.78174 11.6492C1.78174 11.2466 1.95202 10.9839 2.17516 10.7731L2.17875 10.7697L12.5508 1.31474C12.9507 0.949078 13.4439 0.731934 13.9624 0.731934C14.4808 0.731934 14.9738 0.94896 15.3737 1.31444M15.3737 1.31444L19.3983 4.98245L15.3737 1.31444ZM13.6058 3.02935L6.6162 9.39743V17.7926C6.6162 18.4549 6.97281 18.8115 7.6249 18.8115H20.3101C20.952 18.8115 21.3086 18.4549 21.3086 17.7926V9.39743L14.3292 3.02935C14.2171 2.91728 14.0949 2.86633 13.9624 2.86633C13.83 2.86633 13.7077 2.92747 13.6058 3.02935ZM21.0286 9.52099L14.131 3.22756C14.0657 3.16223 14.0128 3.14635 13.9624 3.14635C13.9214 3.14635 13.8668 3.1644 13.8038 3.22736L13.7946 3.23657L6.89621 9.52112V17.7926C6.89621 18.0753 6.97171 18.2493 7.07475 18.3531C7.17748 18.4566 7.34841 18.5315 7.6249 18.5315H20.3101C20.5804 18.5315 20.7487 18.4573 20.8506 18.3539C20.9531 18.2499 21.0286 18.0753 21.0286 17.7926V9.52099Z" fill="#44464D"/>
<path fill-rule="evenodd" clip-rule="evenodd" d="M25.5574 10.9767L22.0218 7.74682L19.2097 5.18941L15.1851 1.52139C14.8285 1.19535 14.4005 1.01195 13.9624 1.01195C13.5243 1.01195 13.0963 1.19535 12.7397 1.52139L2.36742 10.9767C2.18402 11.1499 2.06175 11.3435 2.06175 11.6492C2.06175 12.1382 2.44893 12.4337 2.92781 12.4337C3.22329 12.4337 3.45764 12.2911 3.66141 12.0873L4.97578 10.8952V18.2002C4.97578 19.6368 5.82146 20.4519 7.27848 20.4519H20.6565C22.1034 20.4519 22.949 19.6368 22.949 18.2002V10.885L24.2634 12.0873C24.4774 12.2911 24.7117 12.4337 24.997 12.4337C25.4759 12.4337 25.8631 12.1382 25.8631 11.6492C25.8631 11.3435 25.751 11.1499 25.5574 10.9767ZM6.6162 9.39743L13.6058 3.02935C13.7077 2.92747 13.83 2.86633 13.9624 2.86633C14.0949 2.86633 14.2171 2.91728 14.3292 3.02935L21.3086 9.39743V17.7926C21.3086 18.4549 20.952 18.8115 20.3101 18.8115H7.6249C6.97281 18.8115 6.6162 18.4549 6.6162 17.7926V9.39743Z" fill="#44464D"/>
<path d="M25.5574 10.9767L25.4948 11.0453L25.4955 11.0459L25.5574 10.9767ZM22.0218 7.74682L22.0845 7.67828L22.0843 7.67814L22.0218 7.74682ZM24.2634 12.0873L24.3274 12.0201L24.3261 12.0188L24.2634 12.0873ZM22.949 10.885L23.0117 10.8165L22.8562 10.6743V10.885H22.949ZM4.97578 10.8952H5.06862V10.6857L4.91342 10.8264L4.97578 10.8952ZM3.66141 12.0873L3.59897 12.0185L3.59577 12.0217L3.66141 12.0873ZM2.36742 10.9767L2.30487 10.9081L2.30368 10.9092L2.36742 10.9767ZM12.7397 1.52139L12.8023 1.59L12.8024 1.58991L12.7397 1.52139ZM15.1851 1.52139L15.1224 1.58991L15.1225 1.59001L15.1851 1.52139ZM19.2097 5.18941L19.1472 5.25802L19.1472 5.25808L19.2097 5.18941ZM13.6058 3.02935L13.6684 3.09805L13.6714 3.095L13.6058 3.02935ZM6.6162 9.39743L6.55368 9.3288L6.52337 9.35642V9.39743H6.6162ZM21.3086 9.39743H21.4014V9.35646L21.3712 9.32885L21.3086 9.39743ZM14.3292 3.02935L14.2635 3.09507L14.2666 3.09793L14.3292 3.02935ZM25.62 10.9082L22.0845 7.67828L21.9592 7.81536L25.4948 11.0452L25.62 10.9082ZM25.9559 11.6492C25.9559 11.4845 25.9256 11.3455 25.8664 11.2229C25.8075 11.1007 25.7223 10.9997 25.6193 10.9075L25.4955 11.0459C25.5861 11.127 25.6537 11.2093 25.6992 11.3036C25.7445 11.3975 25.7702 11.5082 25.7702 11.6492H25.9559ZM24.997 12.5266C25.255 12.5266 25.4941 12.4469 25.6702 12.2952C25.8477 12.1422 25.9559 11.9202 25.9559 11.6492H25.7702C25.7702 11.8672 25.6848 12.0375 25.549 12.1545C25.4118 12.2728 25.2179 12.3409 24.997 12.3409V12.5266ZM24.1994 12.1545C24.4213 12.3658 24.6775 12.5266 24.997 12.5266V12.3409C24.7459 12.3409 24.5335 12.2163 24.3274 12.0201L24.1994 12.1545ZM20.6565 20.5448C21.397 20.5448 21.9961 20.3359 22.4102 19.9312C22.8247 19.5261 23.0419 18.9367 23.0419 18.2002H22.8562C22.8562 18.9003 22.6505 19.4367 22.2805 19.7984C21.9101 20.1604 21.3629 20.3591 20.6565 20.3591V20.5448ZM7.27848 20.5448H20.6565V20.3591H7.27848V20.5448ZM4.88295 18.2002C4.88295 18.9367 5.10014 19.5262 5.51597 19.9313C5.93146 20.336 6.53306 20.5448 7.27848 20.5448V20.3591C6.56688 20.3591 6.01714 20.1603 5.64553 19.7983C5.27427 19.4366 5.06862 18.9002 5.06862 18.2002H4.88295ZM2.92781 12.5266C3.25706 12.5266 3.51363 12.3664 3.72706 12.1529L3.59577 12.0217C3.40164 12.2158 3.18952 12.3409 2.92781 12.3409V12.5266ZM1.96892 11.6492C1.96892 11.9202 2.0771 12.1422 2.2546 12.2952C2.43071 12.4469 2.66982 12.5266 2.92781 12.5266V12.3409C2.70692 12.3409 2.51301 12.2728 2.37581 12.1545C2.24 12.0375 2.15459 11.8672 2.15459 11.6492H1.96892ZM2.30368 10.9092C2.10711 11.0949 1.96892 11.3114 1.96892 11.6492H2.15459C2.15459 11.3756 2.26094 11.205 2.43116 11.0442L2.30368 10.9092ZM12.6772 1.45279L2.30488 10.9081L2.42996 11.0453L12.8023 1.59L12.6772 1.45279ZM13.9624 0.919116C13.4976 0.919116 13.0481 1.1137 12.6771 1.45288L12.8024 1.58991C13.1446 1.277 13.5509 1.10478 13.9624 1.10478V0.919116ZM15.2477 1.45288C14.8767 1.1137 14.4272 0.919116 13.9624 0.919116V1.10478C14.3739 1.10478 14.7802 1.277 15.1224 1.58991L15.2477 1.45288ZM19.2722 5.12079L15.2476 1.45278L15.1225 1.59001L19.1472 5.25802L19.2722 5.12079ZM22.0843 7.67814L19.2722 5.12073L19.1472 5.25808L21.9594 7.8155L22.0843 7.67814ZM13.5433 2.96073L6.55368 9.3288L6.67872 9.46605L13.6683 3.09798L13.5433 2.96073ZM6.52337 9.39743V17.7926H6.70903V9.39743H6.52337ZM6.52337 17.7926C6.52337 18.1398 6.61705 18.4213 6.81013 18.6158C7.00332 18.8104 7.28243 18.9043 7.6249 18.9043V18.7187C7.31528 18.7187 7.09004 18.6343 6.9419 18.485C6.79366 18.3357 6.70903 18.1077 6.70903 17.7926H6.52337ZM20.3101 18.9043C20.6479 18.9043 20.9244 18.8102 21.1162 18.6156C21.3078 18.4211 21.4014 18.1398 21.4014 17.7926H21.2158C21.2158 18.1077 21.1311 18.3358 20.9839 18.4853C20.8369 18.6345 20.6142 18.7187 20.3101 18.7187V18.9043ZM21.4014 17.7926V9.39743H21.2158V17.7926H21.4014ZM21.3712 9.32885L14.3918 2.96078L14.2666 3.09793L21.246 9.466L21.3712 9.32885ZM14.3949 2.96371C14.2673 2.83614 14.1221 2.7735 13.9624 2.7735V2.95916C14.0677 2.95916 14.167 2.99842 14.2636 3.095L14.3949 2.96371ZM13.9624 2.7735C13.7996 2.7735 13.6549 2.84892 13.5402 2.96371L13.6714 3.095C13.7604 3.00601 13.8603 2.95916 13.9624 2.95916V2.7735ZM22.8864 10.9535L24.2007 12.1558L24.3261 12.0188L23.0117 10.8165L22.8864 10.9535ZM23.0419 18.2002V10.885H22.8562V18.2002H23.0419ZM4.88295 10.8952V18.2002H5.06862V10.8952H4.88295ZM3.72378 12.1561L5.03815 10.964L4.91342 10.8264L3.59905 12.0185L3.72378 12.1561ZM7.6249 18.9043H20.3101V18.7187H7.6249V18.9043ZM19.3983 4.98245L19.2733 5.11967L19.2734 5.11981L19.3983 4.98245ZM22.2102 7.53966L22.3355 7.40259L22.3352 7.4023L22.2102 7.53966ZM25.7441 10.768L25.6189 10.9051L25.6202 10.9063L25.7441 10.768ZM26.035 11.1416L26.2023 11.061L26.2023 11.061L26.035 11.1416ZM25.7924 12.437L25.9136 12.5776L25.9136 12.5776L25.7924 12.437ZM24.0724 12.2921L24.2003 12.1574L24.1977 12.1551L24.0724 12.2921ZM23.229 11.5206L23.3544 11.3836L23.0434 11.0992V11.5206H23.229ZM22.541 20.065L22.4113 19.9323L22.541 20.065ZM5.38536 20.0654L5.51492 19.9324H5.51492L5.38536 20.0654ZM4.69577 11.5272H4.88143V11.1081L4.57104 11.3897L4.69577 11.5272ZM3.85441 12.2903L3.72955 12.1526L3.72356 12.1586L3.85441 12.2903ZM2.1324 12.437L2.0112 12.5776L2.0112 12.5776L2.1324 12.437ZM2.17516 10.7731L2.04768 10.6382L2.04767 10.6382L2.17516 10.7731ZM2.17875 10.7697L2.05365 10.6325L2.05127 10.6348L2.17875 10.7697ZM12.5508 1.31474L12.6759 1.45195L12.6761 1.45176L12.5508 1.31474ZM15.3737 1.31444L15.2484 1.45149L15.2486 1.45166L15.3737 1.31444ZM21.0286 9.52099H21.2143V9.43906L21.1537 9.38384L21.0286 9.52099ZM14.131 3.22756L13.9996 3.35899L14.0059 3.36472L14.131 3.22756ZM13.8038 3.22736L13.6725 3.09607L13.6725 3.09608L13.8038 3.22736ZM13.7946 3.23657L13.9198 3.37397L13.9259 3.36785L13.7946 3.23657ZM6.89621 9.52112L6.77118 9.38387L6.71055 9.4391V9.52112H6.89621ZM7.07475 18.3531L6.94298 18.4839L7.07475 18.3531ZM20.8506 18.3539L20.9829 18.4842L20.9829 18.4842L20.8506 18.3539ZM22.3352 7.4023L19.5232 4.84509L19.2734 5.11981L22.0853 7.67702L22.3352 7.4023ZM25.8693 10.631L22.3355 7.40259L22.085 7.67674L25.6189 10.9051L25.8693 10.631ZM26.2023 11.061C26.1165 10.8832 25.9953 10.7439 25.868 10.6298L25.6202 10.9063C25.7231 10.9985 25.809 11.1004 25.8678 11.2223L26.2023 11.061ZM26.3287 11.6492C26.3287 11.4367 26.2892 11.2411 26.2023 11.061L25.8678 11.2223C25.927 11.3451 25.9574 11.4842 25.9574 11.6492H26.3287ZM25.9136 12.5776C26.1749 12.3525 26.3287 12.0266 26.3287 11.6492H25.9574C25.9574 11.9207 25.849 12.1431 25.6712 12.2963L25.9136 12.5776ZM24.997 12.8994C25.3294 12.8994 25.6593 12.7968 25.9136 12.5776L25.6712 12.2963C25.4948 12.4483 25.2554 12.5281 24.997 12.5281V12.8994ZM23.9445 12.4266C24.1978 12.6674 24.5414 12.8994 24.997 12.8994V12.5281C24.678 12.5281 24.422 12.3681 24.2003 12.1575L23.9445 12.4266ZM23.1037 11.6576L23.9471 12.4291L24.1977 12.1551L23.3544 11.3836L23.1037 11.6576ZM23.4147 18.2002V11.5206H23.0434V18.2002H23.4147ZM22.6708 20.1978C23.1745 19.7056 23.4147 19.0098 23.4147 18.2002H23.0434C23.0434 18.9371 22.8261 19.5269 22.4113 19.9323L22.6708 20.1978ZM20.6565 20.9176C21.4655 20.9176 22.1688 20.6885 22.6708 20.1978L22.4113 19.9323C21.9968 20.3373 21.3974 20.5463 20.6565 20.5463V20.9176ZM7.27848 20.9176H20.6565V20.5463H7.27848V20.9176ZM5.25581 20.1984C5.75944 20.6889 6.46523 20.9176 7.27848 20.9176V20.5463C6.5327 20.5463 5.93071 20.3374 5.51492 19.9324L5.25581 20.1984ZM4.5101 18.2002C4.5101 19.0099 4.7504 19.706 5.25581 20.1984L5.51492 19.9324C5.09876 19.527 4.88143 18.9371 4.88143 18.2002H4.5101ZM4.5101 11.5272V18.2002H4.88143V11.5272H4.5101ZM3.97915 12.4278L4.8205 11.6647L4.57104 11.3897L3.72968 12.1528L3.97915 12.4278ZM2.92781 12.8994C3.38947 12.8994 3.73371 12.6719 3.98527 12.422L3.72356 12.1586C3.51072 12.37 3.25514 12.5281 2.92781 12.5281V12.8994ZM2.0112 12.5776C2.26549 12.7968 2.5954 12.8994 2.92781 12.8994V12.5281C2.66944 12.5281 2.42998 12.4483 2.25361 12.2963L2.0112 12.5776ZM1.59607 11.6492C1.59607 12.0266 1.74995 12.3525 2.0112 12.5776L2.25361 12.2963C2.07578 12.1431 1.9674 11.9207 1.9674 11.6492H1.59607ZM2.04767 10.6382C1.79834 10.8736 1.59607 11.1822 1.59607 11.6492H1.9674C1.9674 11.311 2.10569 11.0941 2.30264 10.9081L2.04767 10.6382ZM2.05127 10.6348L2.04768 10.6382L2.30264 10.9081L2.30623 10.9047L2.05127 10.6348ZM12.4257 1.17752L2.05367 10.6325L2.30383 10.907L12.6759 1.45195L12.4257 1.17752ZM13.9624 0.546268C13.3905 0.546268 12.8541 0.785822 12.4255 1.17771L12.6761 1.45176C13.0473 1.11233 13.4972 0.917599 13.9624 0.917599V0.546268ZM15.499 1.17739C15.0704 0.785692 14.5341 0.546268 13.9624 0.546268V0.917599C14.4275 0.917599 14.8772 1.11223 15.2484 1.45149L15.499 1.17739ZM15.2486 1.45166L19.2733 5.11967L19.5234 4.84522L15.4988 1.17721L15.2486 1.45166ZM13.9624 3.33201C13.9651 3.33201 13.966 3.33222 13.9658 3.33218C13.9655 3.33212 13.9656 3.33207 13.9665 3.33249C13.9684 3.3333 13.9793 3.33847 13.9997 3.35885L14.2623 3.09628C14.1661 3.00012 14.0674 2.96068 13.9624 2.96068V3.33201ZM13.9351 3.35864C13.9539 3.33981 13.9659 3.33335 13.9696 3.33163C13.9727 3.33017 13.97 3.33201 13.9624 3.33201V2.96068C13.8615 2.96068 13.7619 3.00667 13.6725 3.09607L13.9351 3.35864ZM13.9259 3.36785L13.9351 3.35863L13.6725 3.09608L13.6633 3.10529L13.9259 3.36785ZM7.02125 9.65837L13.9196 3.37382L13.6695 3.09932L6.77118 9.38387L7.02125 9.65837ZM7.08188 17.7926V9.52112H6.71055V17.7926H7.08188ZM7.20652 18.2224C7.14815 18.1635 7.08188 18.0429 7.08188 17.7926H6.71055C6.71055 18.1078 6.79527 18.3351 6.94298 18.4839L7.20652 18.2224ZM7.6249 18.3458C7.3816 18.3458 7.26439 18.2806 7.20652 18.2224L6.94298 18.4839C7.09057 18.6326 7.31521 18.7172 7.6249 18.7172V18.3458ZM20.7183 18.2236C20.6611 18.2817 20.5464 18.3458 20.3101 18.3458V18.7172C20.6143 18.7172 20.8364 18.6329 20.9829 18.4842L20.7183 18.2236ZM20.8429 17.7926C20.8429 18.0429 20.7766 18.1644 20.7183 18.2236L20.9829 18.4842C21.1295 18.3353 21.2143 18.1078 21.2143 17.7926H20.8429ZM20.8429 9.52099V17.7926H21.2143V9.52099H20.8429ZM14.0059 3.36472L20.9035 9.65815L21.1537 9.38384L14.2561 3.09041L14.0059 3.36472ZM20.3101 18.3458H7.6249V18.7172H20.3101V18.3458Z" fill="white" mask="url(#path-1-inside-1)"/>
</svg>
