<svg width="16" height="20" viewBox="0 0 16 20" fill="none" xmlns="http://www.w3.org/2000/svg">
<path d="M8.0459 14.1436C8.22168 14.1436 8.37109 14.0908 8.54688 13.915L11.5176 11.041C11.6494 10.9092 11.7285 10.7686 11.7285 10.584C11.7285 10.2236 11.4473 9.96875 11.0869 9.96875C10.9199 9.96875 10.7354 10.0391 10.6123 10.1797L9.27637 11.5947L8.6875 12.2188L8.74023 10.9004V1.63672C8.74023 1.26758 8.42383 0.951172 8.0459 0.951172C7.66797 0.951172 7.34277 1.26758 7.34277 1.63672V10.9004L7.39551 12.2188L6.80664 11.5947L5.4707 10.1797C5.34766 10.0391 5.1543 9.96875 4.9873 9.96875C4.61816 9.96875 4.35449 10.2236 4.35449 10.584C4.35449 10.7686 4.43359 10.9092 4.56543 11.041L7.53613 13.915C7.71191 14.0908 7.86133 14.1436 8.0459 14.1436ZM3.00098 19.9268H13.082C14.9189 19.9268 15.8418 19.0127 15.8418 17.2021V8.43066C15.8418 6.62012 14.9189 5.70605 13.082 5.70605H10.6299V7.12109H13.0557C13.9258 7.12109 14.4268 7.5957 14.4268 8.50977V17.123C14.4268 18.0371 13.9258 18.5117 13.0557 18.5117H3.01855C2.13965 18.5117 1.65625 18.0371 1.65625 17.123V8.50977C1.65625 7.5957 2.13965 7.12109 3.01855 7.12109H5.45312V5.70605H3.00098C1.16406 5.70605 0.241211 6.62012 0.241211 8.43066V17.2021C0.241211 19.0127 1.16406 19.9268 3.00098 19.9268Z" fill="#44464D"/>
</svg>
