<svg width="15" height="18" viewBox="0 0 15 18" fill="none" xmlns="http://www.w3.org/2000/svg">
<path d="M7.6875 17.7686C7.82812 17.7686 8.05664 17.7158 8.27637 17.5928C13.2773 14.7891 14.9912 13.6025 14.9912 10.3945V3.6709C14.9912 2.74805 14.5957 2.45801 13.8486 2.1416C12.8115 1.71094 9.46289 0.506836 8.42578 0.146484C8.18848 0.0673828 7.93359 0.0146484 7.6875 0.0146484C7.44141 0.0146484 7.18652 0.0849609 6.95801 0.146484C5.9209 0.445312 2.56348 1.71973 1.52637 2.1416C0.788086 2.44922 0.383789 2.74805 0.383789 3.6709V10.3945C0.383789 13.6025 2.10645 14.7803 7.09863 17.5928C7.32715 17.7158 7.54688 17.7686 7.6875 17.7686ZM7.6875 16.1689C7.54688 16.1689 7.40625 16.1162 7.14258 15.958C3.08203 13.4971 1.78125 12.7764 1.78125 10.0693V3.93457C1.78125 3.63574 1.83398 3.52148 2.08008 3.4248C3.41602 2.89746 6.00879 2.02734 7.33594 1.5C7.47656 1.44727 7.59082 1.4209 7.6875 1.4209C7.78418 1.4209 7.89844 1.44727 8.03906 1.5C9.36621 2.02734 11.9414 2.95898 13.3037 3.4248C13.541 3.5127 13.5938 3.63574 13.5938 3.93457V10.0693C13.5938 12.7764 12.293 13.4883 8.23242 15.958C7.97754 16.1162 7.82812 16.1689 7.6875 16.1689ZM4.60254 11.792C4.60254 12.4512 4.89258 12.7588 5.49902 12.7588H9.87598C10.4912 12.7588 10.7812 12.4512 10.7812 11.792V8.38184C10.7812 7.80176 10.5615 7.50293 10.0869 7.43262V6.38672C10.0869 4.76953 9.12012 3.67969 7.6875 3.67969C6.25488 3.67969 5.28809 4.76953 5.28809 6.38672V7.44141C4.82227 7.51172 4.60254 7.81055 4.60254 8.38184V11.792ZM6.20215 7.42383V6.29004C6.20215 5.25293 6.7998 4.56738 7.6875 4.56738C8.5752 4.56738 9.17285 5.25293 9.17285 6.29004V7.41504L6.20215 7.42383Z" fill="#44464D"/>
</svg>
